<svg width="320" height="213" viewBox="0 0 320 213" fill="none" xmlns="http://www.w3.org/2000/svg">
<path d="M91.2182 64.4145C91.4321 64.5886 92.0789 65.1593 92.3464 65.3769C97.2028 65.4169 101.092 64.6252 104.518 61.7243C107.321 59.4267 108.789 57.0212 107.688 53.4584C104.092 49.4658 99.6958 51.0449 95.3271 51.935C99.3388 44.7098 99.4803 43.2249 97.1995 37.7247C93.7615 34.7942 92.2081 34.4637 89.3021 36.2327C86.6286 37.8799 85.2823 40.5179 85.8574 43.2526C86.3003 43.7462 86.8066 44.3804 87.5318 45.2371C87.5393 51.51 89.3948 57.642 91.2182 64.4145ZM94.2112 62.5385C94.0322 62.704 94.1677 62.592 94.2983 62.4315C93.9942 59.473 93.6951 56.5629 93.3362 53.0708C97.0068 55.8795 100.555 54.6326 104.545 53.8794C101.942 58.117 98.4853 60.7269 94.2983 62.4315C94.1677 62.592 94.0807 62.699 94.2112 62.5385ZM90.4596 40.8191C91.5389 39.8749 92.5262 38.9892 93.5184 38.1521C93.7224 38.2291 93.8829 38.3597 94.0918 38.4852C93.6249 41.5721 93.1529 44.6104 92.7344 47.6922C92.5404 47.7121 92.3949 47.7271 92.2009 47.747C91.6271 45.5024 91.0534 43.2577 90.4596 40.8191ZM129.108 47.581C128.983 46.3685 128.199 45.4197 127.372 44.5245C126.39 43.5472 125.174 42.6918 123.742 42.1038C123.484 41.9833 123.053 42.0766 122.718 42.16C122.573 42.175 122.35 42.3939 122.36 42.4909C123.563 44.1808 124.771 45.9191 124.888 48.0146C124.913 48.2571 125.229 48.4697 125.356 48.7508C126.004 49.8115 126.119 50.927 125.651 52.1023C125.328 52.7727 125.306 53.5102 125.23 54.2042C125.188 54.7477 124.903 55.3161 124.716 55.8745C124.283 57.3893 122.971 58.4554 121.762 59.56C120.958 60.3288 119.95 60.5304 118.834 60.6451C117.471 60.7362 116.179 60.0848 116.026 59.0712C115.769 57.5292 115.658 55.9721 115.445 54.3766C115.282 53.2661 115.4 52.0286 114.713 51.0699C113.632 49.6126 113.531 48.1526 114.395 46.5443C114.521 46.3354 114.384 45.9573 114.17 45.7833C113.844 45.4737 113.319 45.1355 112.878 45.1319C112.49 45.1718 111.894 45.5761 111.681 45.892C110.836 47.2042 110.19 48.545 110.495 50.0821C110.643 51.0471 110.699 52.0706 110.799 53.0406C110.799 53.0406 110.799 53.0406 110.75 53.0456C110.825 53.7731 110.997 54.4907 110.97 55.1797C111.003 56.9407 111.706 58.5349 112.647 60.0556C112.881 60.4237 113.071 60.8453 113.397 61.1549C115.284 62.8234 117.499 63.8701 120.612 63.1581C121.475 62.9714 122.401 62.9252 123.318 62.782C124.041 62.6587 124.695 62.3464 125.242 61.9471C125.789 61.5478 126.278 61.0564 126.937 60.7926C128.39 60.1531 128.819 59.0798 129.49 57.9815C130.379 56.6158 129.589 55.1285 130.478 53.7628C130.739 53.4419 130.636 52.9134 130.64 52.4719C130.555 51.6474 130.611 50.7594 129.949 50.0432C129.336 49.322 129.197 48.454 129.108 47.581ZM137.655 37.8311C136.162 39.9941 135.192 42.0053 135.209 44.5523C135.302 48.3167 135.147 52.0577 135.192 55.8271C135.169 56.5646 135.739 57.3393 136.178 58.2744C138.394 57.8996 139.002 56.6608 139.371 55.0055C140.014 52.1947 140.021 49.4002 140.071 46.5523C140.131 43.8013 139.237 41.2956 138.72 38.6529C138.69 38.3619 138.078 38.1307 137.655 37.8311ZM139.605 28.6613C139.021 28.2311 138.55 27.9365 138.074 27.5934C134.787 28.5193 133.299 30.7308 131.907 32.9323C131.405 33.7682 131.558 34.7817 132.715 35.5451C134.803 34.3992 136.988 33.2434 139.173 32.0876C138.89 31.7246 138.598 31.2645 138.262 30.8579C138.639 30.231 139.015 29.6041 139.605 28.6613ZM148.081 55.1396C147.495 55.6409 147.482 55.9854 147.924 56.4791C148.693 57.2823 149.626 57.7746 150.723 57.9559C153.106 58.2502 155.573 57.4575 157.929 58.4407C158.39 58.6384 159.123 58.6121 159.486 58.3297C161.137 57.2287 163.097 57.2234 164.793 56.5589C166.257 56.0164 167.729 55.0808 168.842 53.9862C169.95 52.8431 170.314 51.1392 170.711 49.2849C170.341 48.5387 169.659 47.6285 169.36 46.63C168.218 42.1891 165.163 39.1702 161.488 36.8031C159.233 35.3684 156.771 34.2981 154.347 33.1259C154.138 33.0003 153.842 32.9817 153.584 32.8611C150.64 31.3992 147.939 31.8239 145.301 33.8105C144.119 34.7161 143.379 35.6254 143.481 37.0854C143.626 38.9819 143.859 40.7715 144.825 42.5347C146.507 45.5477 147.821 48.7946 149.275 51.9781C149.958 53.3783 150.012 53.4218 148.081 55.1396ZM147.824 41.1972C147.293 40.3206 147.081 39.215 146.875 38.1579C146.511 36.5288 148.258 34.9279 149.826 35.4039C151.851 36.029 154.012 36.5422 155.718 37.8862C157.425 39.2303 159.165 40.4238 161.21 41.2429C162.127 41.5897 162.863 42.5434 163.539 43.4052C164.381 44.4459 165.04 45.6036 165.79 46.7028C167.135 48.8192 167.214 49.5952 165.925 51.8353C165.727 52.2967 165.292 52.8316 164.861 52.925C163.285 53.332 161.695 53.5935 161.792 53.5835C158.736 53.8975 157.427 54.0321 156.064 54.1232C154.851 54.2478 153.913 53.707 153.469 52.7234C151.746 48.8324 150.115 44.8829 147.824 41.1972ZM193.003 47.337C191.811 46.2341 191.499 47.4915 190.933 48.1868C190.416 48.8772 190.011 49.703 189.382 50.2578C188.801 50.8076 188.036 51.4744 187.347 51.4472C184.819 51.1679 182.271 50.6946 179.809 50.1143C178.503 49.8074 177.802 48.7032 177.686 47.0977C177.509 44.4201 177.181 41.7091 176.907 39.0415C176.623 36.2769 176.29 33.5174 176.05 30.6993C175.958 29.3363 175.359 28.2706 174.58 27.3704C173.85 26.4652 172.856 26.8124 172.641 28.0598C172.436 29.4042 172.581 30.8107 172.473 32.1452C172.07 37.284 172.675 42.2211 174.537 46.9802C174.938 48.0173 175.357 48.7584 176.024 49.5231C178.734 52.5284 182.06 53.412 185.54 53.8876C187.529 54.1732 189.386 53.6393 191.253 53.2024C192.208 52.9572 193.142 52.028 193.838 51.1722C194.747 50.0005 194.35 48.5219 193.003 47.337ZM202.75 52.3148C202.249 51.7292 202.072 50.9631 202.293 50.2542C202.37 50.0502 202.103 49.8327 201.855 49.8091C200.957 49.6563 200.056 49.945 199.442 50.6453C199.011 51.2287 198.533 51.817 198.054 52.4054C197.59 53.1392 197.695 54.1577 198.298 54.7819C199.062 55.5366 199.806 56.0974 200.965 55.9292C201.595 55.8644 202.158 55.6106 202.549 55.1292C202.984 54.5944 203.119 53.9924 203.054 53.3619C203.014 52.9739 202.93 52.6394 202.75 52.3148ZM100.686 100.3C102.936 99.7749 105.337 99.7732 107.41 98.4818C107.822 98.1945 108.566 98.7552 108.674 99.3322C108.93 100.874 109.187 102.416 109.443 103.958C110.641 105.6 110.797 107.593 111.191 109.513C111.226 109.853 111.459 110.221 111.732 110.487C112.783 111.653 113.921 112.713 115.364 113.398C115.519 113.48 115.703 113.363 115.897 113.343C116.275 113.206 117 112.151 116.781 111.929C115.623 110.675 115.939 108.976 115.353 107.566C114.967 106.675 114.053 105.886 114.637 104.895C115.168 103.86 114.006 103.048 114.498 102.116C114.914 101.387 114.742 100.669 114.323 99.928C114.147 99.652 114 99.1769 114.116 98.871C114.453 97.8561 114.363 96.9831 113.735 96.1164C113.559 95.8403 113.311 95.3267 113.431 95.0693C114.143 92.9375 113.827 90.8135 113.656 88.6744C113.495 86.6324 112.404 85.0781 111.168 83.5387C110.72 82.9966 109.55 82.5777 109.08 82.773C108.334 83.1438 107.855 83.7321 107.595 84.5431C107.484 84.8975 107.427 85.2955 107.467 85.6835C107.53 87.2455 107.689 88.7975 107.8 90.3546C107.856 91.3781 107.456 92.2524 106.852 93.0497C105.329 94.9217 103.503 96.2366 100.976 96.4473C98.5029 96.7015 97.9009 96.5674 97.7088 93.7443C97.5643 92.3378 96.6686 91.2535 96.243 89.9739C95.3869 87.3662 93.5149 85.8431 91.1927 84.7094C91.0373 84.6273 90.7948 84.6522 90.6057 84.7207C90.1357 84.916 89.9766 85.2755 90.351 85.5801C91.8001 86.8035 92.3041 88.3692 92.445 90.2172C92.6869 93.5252 93.0744 96.8183 93.4133 100.116L93.4618 100.111C93.6413 101.857 93.7722 103.608 94.0002 105.35C94.2879 107.673 94.6242 109.991 94.9655 112.357C95.0352 113.036 95.8711 113.539 96.7056 113.551C97.0936 113.511 97.4816 113.471 97.8646 113.383C98.7762 113.191 99.2984 112.549 99.3741 111.855C99.5876 110.118 98.7192 108.344 99.7237 106.673C98.8118 104.953 100.107 103.251 99.7388 101.574C99.587 101.05 100.255 100.394 100.686 100.3ZM138.446 94.2629C138.361 93.4384 137.942 92.6973 137.193 92.088L137.081 91.9525C136.22 91.2077 135.36 90.463 134.146 90.0976C133.087 89.8143 132.223 89.511 131.499 89.1443C130.051 88.4108 128.421 88.2843 126.646 88.6628C124.111 89.2664 121.762 90.7332 119.638 92.961C118.801 93.8802 118.3 95.206 118.082 96.895C118.02 97.2444 118.297 97.559 118.404 97.646C118.462 97.7381 118.949 98.1782 119.312 97.8958C119.539 97.7254 119.762 97.5065 119.99 97.3361C120.164 97.1221 120.391 96.9517 120.619 96.7813C120.754 96.6693 120.987 96.5474 121.176 96.4789C121.298 96.7115 121.415 96.8955 121.435 97.0895C121.534 98.0595 121.639 99.0781 121.739 100.048L122.013 102.716C122.137 103.928 122.267 105.189 122.392 106.402C122.59 107.852 123.796 109.1 125.35 109.431C126.301 109.627 127.199 109.78 128.146 109.927C128.543 109.985 128.941 110.042 129.339 110.099L129.49 110.132L133.089 107.949C133.181 107.891 133.273 107.832 133.365 107.774C133.641 107.598 133.873 107.476 134.101 107.306C135.229 106.357 136.428 105.155 137.04 103.475C137.146 103.072 137.3 102.664 137.459 102.305C137.762 101.44 138.06 100.527 138.412 99.6578C138.72 98.842 138.835 98.046 138.798 97.2165C138.694 96.198 138.594 95.228 138.446 94.2629ZM127.177 107.184C125.332 106.394 124.388 105.314 124.175 103.719C124.13 103.282 124.09 102.894 124.05 102.506L123.985 101.876C123.768 100.722 124.042 99.5663 124.31 98.3624L124.377 98.0614C124.584 97.207 124.537 96.2805 124.496 95.4025C124.495 94.9125 124.493 94.4225 124.492 93.9325C124.521 93.7335 124.685 93.4226 124.912 93.2522C125.459 92.8528 126.007 92.4535 126.845 92.0243C127.213 91.7904 127.402 91.722 127.547 91.707C127.644 91.697 127.644 91.697 127.698 91.7405C128.198 91.8362 128.741 91.8784 129.241 91.974C131.183 92.2646 133.027 92.5652 134.501 94.0312C135.425 94.9165 135.787 96.0556 135.587 97.4485C135.401 98.4969 134.972 99.5703 134.446 100.654C134.287 101.013 134.075 101.329 133.819 101.698C133.475 102.175 133.132 102.651 132.945 103.21C132.334 105.38 130.605 106.195 128.783 107.068L128.599 107.185C128.221 107.322 127.59 107.387 127.177 107.184ZM145.526 106.671C144.94 107.172 144.927 107.517 145.37 108.01C146.138 108.814 147.071 109.306 148.168 109.487C150.551 109.781 153.018 108.989 155.374 109.972C155.835 110.17 156.568 110.143 156.931 109.861C158.582 108.76 160.542 108.755 162.238 108.09C163.702 107.548 165.174 106.612 166.287 105.517C167.395 104.374 167.759 102.67 168.157 100.816C167.786 100.07 167.104 99.1597 166.806 98.1611C165.663 93.7203 162.608 90.7014 158.934 88.3343C156.679 86.8996 154.216 85.8293 151.792 84.6571C151.583 84.5315 151.287 84.5129 151.03 84.3923C148.086 82.9304 145.384 83.355 142.746 85.3417C141.565 86.2473 140.825 87.1566 140.926 88.6166C141.072 90.5131 141.305 92.3027 142.27 94.0659C143.952 97.0789 145.266 100.326 146.721 103.509C147.404 104.909 147.457 104.953 145.526 106.671ZM145.269 92.7284C144.738 91.8517 144.527 90.7462 144.32 89.6891C143.956 88.06 145.703 86.4591 147.272 86.9351C149.297 87.5602 151.457 88.0734 153.163 89.4174C154.87 90.7615 156.61 91.955 158.655 92.7741C159.573 93.1209 160.308 94.0746 160.985 94.9363C161.827 95.9771 162.485 97.1348 163.235 98.234C164.58 100.35 164.66 101.126 163.37 103.367C163.173 103.828 162.738 104.363 162.306 104.456C160.73 104.863 159.14 105.125 159.237 105.115C156.181 105.429 154.872 105.563 153.509 105.654C152.296 105.779 151.358 105.238 150.914 104.255C149.191 100.364 147.56 96.4141 145.269 92.7284ZM200.389 97.3563C200.374 97.2108 200.209 97.0318 200.053 96.9497C199.164 96.404 198.126 96.3146 197.234 96.7004C195.407 97.5253 193.521 97.7682 191.561 97.7736C190.532 97.7812 189.689 98.162 188.739 98.4557C186.64 99.0145 184.653 99.7089 182.807 100.83C181.974 101.307 181.088 101.742 180.201 102.176C179.503 102.542 178.517 102.006 178.491 101.273C178.465 99.1194 178.44 96.9654 178.366 94.8164C178.335 94.0354 178.396 93.1959 178.035 92.5468C177.459 91.2337 177.373 89.9192 177.282 88.5561C177.231 87.5811 176.626 79.311 176.201 78.5214C175.46 77.0292 175.494 75.4572 175.146 73.9736C175.077 73.7846 174.912 73.6056 174.757 73.5235C174.397 73.3644 173.931 73.1183 173.698 73.2402C172.487 73.8548 171.568 74.9295 170.853 76.0812C170.738 76.3872 170.836 76.8672 170.919 77.2018C171.056 77.5798 171.382 77.8894 171.466 78.2239C171.839 79.95 172.613 89.8692 171.973 91.7484C171.598 92.8653 171.368 93.9672 171.391 95.1412C171.379 97.8872 171.464 100.623 171.355 103.379C171.331 105.048 172.198 106.331 172.929 107.727C173.056 108.008 173.518 108.205 173.872 108.316C174.431 108.504 175.022 108.541 175.818 108.655C176.735 108.512 178.021 108.625 179.048 108.127C181.848 106.761 184.791 105.821 187.586 104.407C189.175 103.655 190.77 102.952 192.422 102.341C195.112 101.33 197.835 100.168 200.203 98.4048C200.43 98.2344 200.376 97.7008 200.389 97.3563ZM207.774 103.067C207.272 102.482 207.096 101.715 207.317 101.007C207.394 100.803 207.126 100.585 206.879 100.561C205.981 100.409 205.079 100.697 204.465 101.398C204.035 101.981 203.556 102.569 203.078 103.158C202.614 103.892 202.719 104.91 203.322 105.534C204.086 106.289 204.83 106.85 205.989 106.682C206.619 106.617 207.181 106.363 207.573 105.882C208.008 105.347 208.142 104.745 208.077 104.114C208.037 103.726 207.954 103.392 207.774 103.067ZM138.187 139.039C138.211 137.37 137.393 136.082 136.429 134.809C136.039 134.359 135.612 134.011 135.053 133.823C133.776 133.317 132.547 132.806 131.097 133.004C128.386 133.332 125.65 133.417 122.949 133.842C119.719 134.37 117.225 135.851 116.109 139.299C115.281 141.737 114.744 144.144 115.105 146.705C115.373 148.834 115.544 150.973 115.763 153.107C115.812 153.102 115.86 153.097 115.909 153.092C116.188 155.808 116.467 158.524 116.746 161.24C116.846 162.21 116.946 163.18 117.52 164.004C118.144 164.822 118.292 165.787 118.44 166.752C118.608 167.911 118.825 169.065 119.565 170.067C120.31 173.029 121.968 175.8 122.001 178.982C121.992 179.375 122.129 179.753 122.266 180.131C122.329 180.272 122.505 180.548 122.602 180.538C122.941 180.503 123.324 180.415 123.547 180.196C123.992 179.758 124.233 179.243 123.78 178.652C123.498 178.289 123.511 177.945 123.816 177.57C124.865 176.335 125.211 174.927 125.036 173.23C124.441 168.39 124.039 163.53 123.541 158.68C123.55 158.287 123.51 157.899 123.518 157.506C123.531 156.671 123.941 155.894 124.648 155.625C127.372 154.463 129.754 152.846 132.249 151.364C134.007 150.35 135.284 148.944 136.444 147.355C137.86 145.396 138.621 143.259 138.318 140.79C138.258 140.208 138.198 139.626 138.187 139.039ZM121.897 160.809C121.688 160.683 121.561 160.402 121.439 160.17C121.386 160.126 121.337 160.131 121.284 160.088C121.279 160.039 121.274 159.991 121.274 159.991C120.963 159.827 120.604 159.668 120.482 159.435C120.355 159.154 120.46 158.751 120.474 158.407C120.625 158.44 120.77 158.425 120.877 158.512C120.989 158.648 121.052 158.788 121.121 158.977C121.156 159.317 121.239 159.651 121.274 159.991C121.274 159.991 121.323 159.986 121.327 160.034C121.381 160.078 121.386 160.126 121.439 160.17C121.692 160.242 121.993 160.309 122.158 160.488C122.494 160.895 122.32 161.109 121.897 160.809ZM134.878 142.614C134.915 143.444 134.693 144.153 134.171 144.795C133.644 145.388 133.224 146.068 132.633 146.521C130.769 147.938 128.788 149.171 126.983 150.68C125.802 151.585 124.236 152.089 122.826 152.675C121.658 153.237 119.802 152.349 119.479 151.108C119.145 149.77 118.957 148.417 118.957 148.417C118.758 146.477 118.649 145.9 118.638 145.313C118.376 141.811 120.869 137.927 124.246 136.453C127.299 135.159 131.566 136.142 133.893 138.746C134.277 139.147 134.487 139.763 134.639 140.286C134.816 141.052 134.847 141.833 134.878 142.614ZM143.77 156.601C145.04 161.812 152.869 164.537 156.263 160.365C157.346 158.979 159.017 158.072 160.416 156.899C160.866 156.51 161.631 155.843 161.504 155.562C161.235 154.855 160.533 153.75 160.043 153.752C158.719 153.741 157.279 154.036 156.063 154.602C154.425 155.358 152.978 156.536 151.403 157.433C151.035 157.667 150.04 157.525 150.035 157.476C149.929 155.968 148.209 154.968 148.762 153.196C149.084 152.035 148.896 150.682 148.965 149.45C149.058 147.97 149.829 145.93 149.147 145.02C147.857 143.437 148.828 141.916 148.426 140.389C148.014 138.765 148.519 136.997 148.247 135.31C147.999 133.375 147.563 131.508 146.883 129.666C146.609 128.91 145.734 128.02 144.976 127.804C143.665 127.448 142.936 128.455 142.672 129.707C142.422 130.615 142.226 131.566 142.132 132.556C142.032 133.498 142.137 134.516 142.086 135.453C141.932 139.194 141.68 142.945 141.519 146.147C142.311 150.036 142.946 153.352 143.77 156.601ZM164.349 160.318C164.713 160.526 165.086 160.34 165.343 159.971C165.686 159.495 166.029 159.018 166.217 158.46C167.074 156.313 167.373 153.979 167.877 151.721C168.121 150.765 168.323 149.862 168.67 148.944C169.103 147.919 169.738 147.413 170.805 147.303C173.133 147.064 175.461 146.825 177.794 146.634C178.279 146.584 178.969 147.101 179.067 147.581C179.196 148.352 179.324 149.123 179.404 149.9C179.771 152.999 180.09 156.103 180.501 159.148C180.526 159.391 180.939 159.593 181.245 159.709C181.299 159.752 181.618 159.524 181.647 159.325C182.084 157.858 182.726 156.469 182.508 154.825C182.111 151.925 181.861 149.01 181.562 146.1C181.562 146.1 181.562 146.1 181.513 146.105C181.214 143.195 180.915 140.285 180.665 137.37C180.52 135.963 180.002 134.742 179.247 133.594C178.609 132.63 177.966 131.618 177.284 130.708C177.109 130.432 176.652 130.283 176.254 130.226C175.308 130.078 174.333 130.129 173.451 130.612C170.758 132.065 168.765 134.132 168.045 137.147C167.379 140.205 166.359 143.153 165.232 146.014C165.121 146.368 164.923 146.829 165.007 147.164C165.507 149.171 164.168 150.926 164.319 152.871C163.199 154.849 163.972 157.122 163.201 159.162C163.162 159.264 163.338 159.54 163.445 159.627C163.717 159.893 164.038 160.154 164.349 160.318ZM169.531 143.023C169.699 142.271 170.017 141.552 170.137 140.804C170.39 139.455 171.1 138.255 171.198 136.823C171.368 135.139 172.481 134.044 173.701 133.037C173.836 132.925 174.074 132.852 174.214 132.788C175.106 132.402 176.34 132.962 176.575 133.82C177.089 135.482 176.842 137.37 178.025 138.866C178.213 140.219 178.449 141.567 178.54 142.93C178.517 143.178 178.13 143.708 177.893 143.781C176.739 143.998 175.57 144.069 174.405 144.188C173.241 144.308 172.029 144.433 170.865 144.552C170.137 144.627 169.359 143.727 169.531 143.023ZM208.59 123.815C208.77 122.228 207.917 122.511 207.156 122.737C206.579 122.845 205.877 123.162 205.63 123.629C204.969 124.824 204.361 126.063 204.006 127.374C202.829 131.661 201.807 136.03 200.679 140.312C200.496 140.919 200.277 142.118 199.26 141.291C196.484 139.077 193.8 136.804 191.111 134.482C189.336 132.949 187.599 131.314 185.776 129.786C185.236 129.303 184.548 129.765 184.526 130.503C184.389 132.036 185.334 133.116 186.224 134.151C186.843 134.921 187.509 135.686 188.263 136.344C191.171 138.887 193.823 141.801 197.515 143.382C199.006 144.062 199.265 144.672 198.842 146.284C197.939 149.416 197.03 152.499 196.127 155.631C195.978 156.087 195.591 156.617 195.728 156.995C195.875 157.47 196.542 158.235 196.731 158.166C198.669 157.477 201.144 157.713 202.064 155.217C202.136 154.964 202.16 154.717 202.285 154.508C205.34 148.459 207.578 142.103 209.006 135.486C209.643 132.627 209.824 129.618 210.212 126.246C209.75 125.558 208.525 124.606 208.59 123.815ZM206.752 131.208C206.83 131.004 206.955 130.796 207.032 130.592C207.149 130.776 207.417 130.993 207.334 131.149C207.219 131.455 206.996 131.674 206.779 131.941C206.804 132.183 206.829 132.426 206.805 132.673C206.728 132.877 206.602 133.086 206.525 133.29C206.408 133.106 206.136 132.84 206.218 132.685C206.339 132.427 206.61 132.203 206.779 131.941C206.802 131.693 206.729 131.456 206.752 131.208ZM205.043 137.462C204.977 138.253 205.717 139.255 204.549 139.816C204.526 140.064 204.599 140.301 204.576 140.549C204.498 140.753 204.373 140.962 204.296 141.166C204.179 140.982 203.96 140.759 203.994 140.608C204.109 140.303 204.38 140.079 204.549 139.816C204.664 139.02 203.923 138.018 205.091 137.457C205.284 136.947 205.471 136.388 205.664 135.879C205.639 135.636 205.614 135.394 205.638 135.146C205.666 134.947 205.84 134.733 205.917 134.529C206.034 134.713 206.302 134.931 206.22 135.086C206.104 135.392 205.882 135.611 205.664 135.879C205.471 136.388 205.235 136.952 205.043 137.462ZM220.803 152.997C220.301 152.411 220.125 151.645 220.346 150.936C220.423 150.732 220.156 150.515 219.908 150.491C219.01 150.338 218.109 150.627 217.494 151.327C217.064 151.911 216.585 152.499 216.107 153.087C215.643 153.821 215.748 154.84 216.351 155.464C217.115 156.219 217.859 156.779 219.018 156.611C219.648 156.546 220.21 156.293 220.602 155.811C221.037 155.276 221.171 154.674 221.106 154.044C221.067 153.656 220.983 153.321 220.803 152.997Z" fill="#F3F3F3"/>
<g clip-path="url(#clip0_3_75)">
<path d="M216.515 169.999C214.628 170.235 212.742 170.489 210.854 170.7C209.589 170.841 208.321 170.919 207.054 171.028C206.801 171.03 206.546 171.061 206.297 171.12C204.518 171.713 202.663 171.629 200.849 171.909C200.534 171.925 200.219 171.974 199.912 172.053C198.393 172.636 196.783 172.466 195.223 172.764C192.865 173.215 190.472 173.495 188.092 173.833C186.274 174.092 184.451 174.303 182.636 174.581C180.95 174.839 179.274 175.17 177.59 175.444C175.093 175.849 172.593 176.227 170.095 176.627C167.091 177.073 164.108 177.667 161.166 178.407C158.054 179.227 154.938 180.051 151.791 180.743C149.51 181.245 147.252 181.862 144.878 182.017C143.004 182.139 141.126 182.561 139.247 182.823C139.046 182.852 138.826 182.708 138.616 182.644C138.765 182.505 138.887 182.292 139.069 182.239C140.831 181.729 142.583 181.18 144.373 180.771C147.274 180.109 150.145 179.366 152.989 178.518C157.224 177.255 161.478 176.054 165.817 175.07C168.664 174.424 171.541 174.045 174.392 173.475C175.382 173.277 176.396 173.189 177.399 173.049C179.718 172.725 182.038 172.4 184.357 172.075C186.238 171.809 188.119 171.55 189.997 171.262C191.437 171.042 192.866 170.755 194.309 170.546C197.129 170.138 199.92 169.52 202.789 169.473C204.537 169.444 206.313 169.07 208.077 168.94C210.178 168.787 212.285 168.663 214.375 168.65C215.827 168.657 217.263 168.764 218.665 168.972C219.681 169.111 220.657 169.612 220.782 170.381C220.922 171.235 220.926 172.161 219.797 173.012C217.781 174.532 215.37 175.237 212.877 175.796C209.483 176.558 206.064 177.222 202.649 177.897C200.043 178.412 197.432 178.901 194.814 179.363C192.695 179.737 190.57 180.08 188.44 180.392C185.308 180.851 182.2 181.518 179.039 181.745C178.544 181.781 178.05 181.958 177.551 182.015C173.804 182.45 170.064 182.961 166.303 183.239C163.853 183.42 161.397 183.803 158.95 184.146C157.325 184.374 155.712 184.71 154.089 184.965C151.457 185.378 148.86 185.87 146.404 186.892C145.67 187.197 144.807 187.277 144.03 187.523C140.413 188.662 136.903 190.036 133.539 191.63C132.301 192.218 130.984 192.692 129.712 193.233C129.311 193.407 128.925 193.604 128.559 193.823C128.106 194.09 128.441 194.326 128.686 194.358C129.355 194.472 130.052 194.505 130.754 194.456C134.02 194.06 137.267 193.47 140.464 192.692C143.121 192.074 145.828 191.799 148.49 191.24C150.282 190.863 152.093 190.548 153.905 190.29C156.41 189.934 158.867 189.303 161.407 189.112C162.896 189.001 164.381 188.547 165.874 188.28C168.174 187.868 170.486 187.516 172.782 187.079C175.949 186.475 179.195 186.306 182.297 185.346C184.518 185.354 186.712 184.536 188.939 184.719C189.19 184.739 189.456 184.707 189.704 184.734C190.321 184.802 190.534 185.141 190.105 185.526C189.412 186.148 188.709 186.811 187.857 187.276C183.961 189.404 179.852 191.244 175.733 193.064C174.646 193.544 173.525 193.971 172.43 194.44C172.298 194.496 172.23 194.656 172.133 194.768C172.311 194.795 172.5 194.872 172.665 194.839C173.717 194.629 174.72 194.148 175.829 194.277C176.065 194.314 176.298 194.362 176.524 194.42C176.434 194.64 176.301 194.851 176.129 195.045C174.812 196.139 173.069 196.358 171.38 196.666C170.758 196.777 170.131 196.863 169.504 196.922C169.056 196.995 168.602 197.001 168.169 196.938C167.703 196.846 167.304 196.634 167.034 196.335C166.916 196.166 167.229 195.688 167.504 195.46C168.805 194.414 170.275 193.504 171.87 192.757C175.945 190.76 180.091 188.871 184.337 187.132C184.476 187.068 184.611 186.998 184.741 186.923C184.565 186.895 184.375 186.812 184.216 186.848C182.551 187.235 180.89 187.642 179.227 188.04C178.613 188.186 177.987 188.298 177.38 188.465C174.825 189.167 172.211 189.652 169.634 190.288C167.252 190.876 164.778 191.153 162.343 191.557C161.03 191.776 159.715 191.978 158.4 192.181C156.525 192.471 154.649 192.757 152.772 193.04C150.02 193.457 147.274 193.937 144.516 194.271C141.787 194.602 139.098 195.178 136.355 195.471C134.35 195.686 132.409 195.634 130.439 195.705C129.377 195.744 128.5 195.394 127.642 195.053C126.878 194.75 126.793 194.167 127.393 193.559C128.628 192.27 130.159 191.158 131.897 190.288C133.402 189.554 135.025 188.961 136.446 188.14C137.7 187.417 139.074 186.968 140.409 186.417C143.499 185.143 146.769 184.333 150.018 183.447C152.321 182.786 154.687 182.321 157.073 182.06C159.857 181.796 162.596 181.21 165.395 181.033C167.955 180.871 170.521 180.295 173.089 179.947C174.286 179.785 175.494 179.759 176.694 179.621C178.135 179.455 179.572 179.216 181.013 179.046C182.149 178.911 183.29 178.84 184.428 178.725C185.246 178.679 186.065 178.576 186.873 178.415C188.481 178.016 190.189 178.302 191.74 177.598C194.087 177.509 196.391 176.985 198.714 176.659C201.038 176.333 203.356 175.977 205.672 175.597C208.172 175.187 210.666 174.733 213.163 174.302C214.949 173.994 216.596 173.343 218.203 172.654C218.92 172.346 219.637 171.887 219.64 171.097C219.643 170.436 219.471 170.185 218.644 170.144C217.946 170.109 217.236 170.134 216.532 170.133C216.524 170.091 216.519 170.045 216.515 169.999Z" fill="#EAD3AA"/>
</g>
<defs>
<clipPath id="clip0_3_75">
<rect width="103.024" height="26.841" fill="white" transform="translate(121.198 180.633) rotate(-10.2743)"/>
</clipPath>
</defs>
</svg>
