<svg width="98" height="99" viewBox="0 0 98 99" fill="none" xmlns="http://www.w3.org/2000/svg">
<g clip-path="url(#clip0_10_6)">
<path d="M62.8617 35.9438C60.3122 34.7953 57.5783 33.9491 54.7198 33.4644C54.6678 33.4551 54.6158 33.4785 54.5889 33.5252C54.2373 34.1392 53.8479 34.9402 53.5751 35.5698C50.5007 35.1179 47.442 35.1179 44.4305 35.5698C44.1577 34.9262 43.7541 34.1392 43.4009 33.5252C43.3741 33.48 43.3221 33.4566 43.2701 33.4644C40.4132 33.9475 37.6793 34.7937 35.1282 35.9438C35.1061 35.9532 35.0872 35.9688 35.0746 35.989C29.889 43.5954 28.4684 51.0149 29.1653 58.3423C29.1684 58.3782 29.1889 58.4125 29.2173 58.4342C32.6387 60.9011 35.9528 62.3987 39.2055 63.3914C39.2575 63.407 39.3127 63.3883 39.3458 63.3462C40.1152 62.3146 40.8011 61.2269 41.3891 60.083C41.4238 60.016 41.3907 59.9365 41.3198 59.91C40.2319 59.5048 39.196 59.0108 38.1995 58.4498C38.1207 58.4047 38.1144 58.294 38.1869 58.241C38.3966 58.0867 38.6064 57.9262 38.8066 57.7641C38.8428 57.7345 38.8933 57.7283 38.9359 57.747C45.4821 60.6814 52.5692 60.6814 59.0382 57.747C59.0808 57.7267 59.1313 57.733 59.1691 57.7626C59.3694 57.9246 59.5791 58.0867 59.7904 58.241C59.8629 58.294 59.8581 58.4047 59.7793 58.4498C58.7829 59.0217 57.747 59.5048 56.6575 59.9085C56.5866 59.935 56.555 60.016 56.5897 60.083C57.1904 61.2253 57.8763 62.313 58.6315 63.3447C58.663 63.3883 58.7198 63.407 58.7718 63.3914C62.0402 62.3987 65.3544 60.9011 68.7757 58.4342C68.8057 58.4125 68.8246 58.3797 68.8278 58.3439C69.6618 49.8725 67.4308 42.5139 62.9137 35.9905C62.9026 35.9688 62.8838 35.9532 62.8617 35.9438ZM42.3667 53.8807C40.3958 53.8807 38.7719 52.1041 38.7719 49.9224C38.7719 47.7407 40.3643 45.9642 42.3667 45.9642C44.3848 45.9642 45.993 47.7563 45.9615 49.9224C45.9615 52.1041 44.369 53.8807 42.3667 53.8807ZM55.6579 53.8807C53.6871 53.8807 52.0631 52.1041 52.0631 49.9224C52.0631 47.7407 53.6555 45.9642 55.6579 45.9642C57.676 45.9642 59.2842 47.7563 59.2527 49.9224C59.2527 52.1041 57.676 53.8807 55.6579 53.8807Z" fill="#F3F3F3"/>
</g>
<g clip-path="url(#clip1_10_6)">
<path d="M59.6385 93.9246C60.7576 93.8487 61.8947 94.0066 62.9995 93.8382C64.2811 93.6435 65.5238 93.0634 66.8049 92.9099C67.9109 92.7494 68.9955 92.4276 70.0317 91.9524C72.9918 90.6391 75.8414 89.0196 78.5438 87.1146C80.1789 86.0628 81.6211 84.6627 82.7896 82.9926C84.1368 80.9709 85.6347 79.0574 86.7074 76.7897C88.4277 73.2753 89.8888 69.6086 91.0757 65.8276C91.5584 64.2202 92.1981 62.698 92.2378 60.9673C92.2527 60.3345 92.3579 59.7035 92.4153 59.0708C92.5674 57.3832 93.6785 56.0162 93.5913 54.2036C93.5094 52.4984 92.6182 51.0279 92.7658 49.2582C92.8086 48.2064 92.7072 47.1553 92.465 46.1425C91.6727 42.2447 90.4283 38.4885 88.764 34.971C87.6242 32.322 86.1495 29.8784 84.386 27.7162C82.1696 25.1652 79.6298 23.0737 77.2236 20.7932C76.2355 19.857 75.1425 19.0622 74.0972 18.2033C72.48 18.0721 71.486 16.7432 70.285 15.7727C69.3902 15.023 68.3959 14.4372 67.3379 14.0367C65.769 13.3914 64.2587 12.5804 62.8268 11.6143C61.8649 10.9838 60.8742 10.4107 59.8585 9.89724C57.9738 9.04329 55.9715 8.47795 54.1567 7.4732C52.6242 6.6271 50.775 7.07438 49.4016 5.79576C49.2573 5.66162 49.0845 5.57239 48.8997 5.5367C47.791 5.35954 46.6724 5.24956 45.5716 5.02629C45.0383 4.85228 44.5138 4.64662 44.0002 4.41014C41.4337 3.56279 38.8882 3.40354 36.3793 4.79855C35.7276 5.22115 35.0272 5.53724 34.2991 5.73731C32.4465 6.06437 30.6856 6.89161 29.1657 8.14886C27.5128 9.53081 25.4497 10.1962 24.054 12.0351C23.5935 12.7151 23.0092 13.2754 22.3415 13.6772C20.1084 14.8223 18.239 16.7247 16.9946 19.1184C16.6599 19.6354 16.2068 20.0396 15.6852 20.2866C14.9652 20.6643 14.5821 21.3521 14.067 21.9549C11.4587 25.0224 9.31459 28.4872 7.12726 31.9218C5.81716 33.0599 5.92355 34.9828 5.15256 36.4053C4.62502 37.5348 4.34196 38.7874 4.32693 40.0589C4.24068 41.1138 4.21972 42.1717 4.16974 43.2283C4.10974 44.4968 4.06989 45.7673 3.98401 47.034C3.87305 48.3036 4.08291 49.5786 4.58911 50.71C5.01254 51.6396 5.258 52.6754 5.69381 53.5955C6.65322 55.6223 7.61439 57.6556 8.71237 59.5854C9.35333 60.6216 10.1062 61.5625 10.9537 62.3864C11.6288 63.0901 12.475 63.5796 13.184 64.2467C13.4882 64.4915 13.7442 64.8048 13.9362 65.1673C14.1283 65.5298 14.2523 65.9338 14.3006 66.3545C14.3666 67.4128 14.7017 68.4234 15.2655 69.2645C16.3716 70.9458 16.9173 73.0236 18.1646 74.6069C18.5095 76.0986 19.4473 77.1331 20.2976 78.2499C22.3738 80.9731 24.5665 83.5194 27.5657 84.9661C27.7412 85.0421 27.8978 85.1644 28.0224 85.323C29.1327 86.9051 30.8483 87.2416 32.3493 88.0274C33.8585 88.8182 35.2304 89.9203 36.9089 90.3244C37.9872 90.5843 38.8807 91.4572 40.0504 91.5525C41.3579 91.5746 42.6458 91.8869 43.8412 92.4719C44.9769 93.0992 46.3826 93.091 47.5605 93.648C48.5742 94.1638 49.6669 94.458 50.7814 94.5151C52.2763 94.5641 53.7691 94.68 55.2629 94.7636C56.1927 94.8731 57.1348 94.7364 58.015 94.3643C58.5315 94.1155 59.0804 93.9668 59.6385 93.9246ZM48.4468 89.1959C48.0751 89.1725 47.7135 89.0563 47.3879 88.8558C46.5769 88.343 45.6734 88.0417 44.7426 87.9735C42.8736 88.0032 41.03 87.533 39.3618 86.6013C38.4188 86.0272 37.0889 86.2461 36.1661 85.6512C33.5879 83.9891 30.6328 83.2433 28.1661 81.3418C27.0968 80.5182 25.9222 79.8784 25.0306 78.7685C24.5601 78.1154 24.0078 77.544 23.3908 77.072C21.634 75.8769 20.2388 74.1106 19.3842 71.9996C18.9823 71.0646 18.3445 70.2649 17.8847 69.3572C17.7955 69.1702 17.7745 68.9503 17.8261 68.7441C17.8777 68.5379 17.998 68.3616 18.1613 68.2526C18.2374 68.2217 18.3181 68.2091 18.3983 68.2157C18.4785 68.2222 18.5564 68.2477 18.627 68.2905C19.3038 68.6596 19.9986 69.0448 20.717 68.4935C21.1826 68.1474 21.5889 67.7079 21.9157 67.1971C22.0108 67.0208 22.0686 66.8223 22.0843 66.6173C22.1 66.4124 22.0733 66.2066 22.0063 66.0166C20.8888 64.0902 19.4772 62.4065 17.8366 61.043C14.8735 58.4908 12.4892 55.2206 10.1889 51.9209C9.48966 50.9329 9.01067 49.7676 8.79171 48.5215C8.51096 46.6616 7.62616 44.979 7.73817 43.0065C7.85186 40.9981 8.88466 39.4533 9.64726 37.7798C10.7095 35.3016 12.0576 32.9912 13.6558 30.9099C13.8992 30.6078 13.937 30.0819 14.193 29.8075C16.5112 27.3287 18.4193 24.4187 20.6453 21.8572C22.8917 19.2836 25.2535 16.8426 27.7212 14.5441C29.1492 13.2074 30.8543 12.2497 32.4441 11.1377C33.2374 10.5834 34.0685 10.0968 34.8508 9.52318C35.4731 9.04225 36.2047 8.77791 36.9542 8.76318C38.4488 8.75153 39.9432 8.76868 41.4375 8.77407L41.4297 8.9396C42.549 8.99254 43.6697 9.02556 44.7871 9.10665C45.349 9.10596 45.9071 9.19776 46.4438 9.37916C49.0337 10.4876 51.6827 11.4778 54.157 12.8567C56.9779 14.4297 59.9452 15.6507 62.6747 17.4424C67.0021 20.2803 71.3928 22.997 75.7412 25.7942C76.3843 26.2003 76.9769 26.7002 77.5041 27.2812C78.6874 28.615 79.8472 29.9853 80.9441 31.4096C86.1007 38.093 84.4145 35.2365 87.5809 43.6118C87.8704 44.3768 88.3004 45.2101 88.2478 45.9813C88.0998 48.1562 89.2576 50.0294 89.1117 52.191C88.9133 55.123 89.1635 58.1222 87.7993 60.8427C87.736 61.0427 87.699 61.2519 87.6895 61.4634C87.1421 64.7622 86.1986 67.9658 84.8855 70.9847C84.3863 72.1165 83.7643 73.1672 83.5555 74.4639C83.3411 75.7898 82.1242 76.407 81.5938 77.5102C80.765 79.4351 79.4706 81.0583 77.8628 82.1889C75.5908 83.6369 73.5389 85.6471 70.976 86.393C68.8118 87.0225 66.6923 87.8153 64.5344 88.4538C63.8048 88.6236 63.0647 88.7244 62.3218 88.7551C61.7629 88.7162 61.2012 88.7544 60.6488 88.8689C56.593 90.5237 52.5139 89.2448 48.4468 89.1959Z" fill="#F3F3F3"/>
</g>
<defs>
<clipPath id="clip0_10_6">
<rect width="40" height="39.2727" fill="white" transform="translate(29 29.1436)"/>
</clipPath>
<clipPath id="clip1_10_6">
<rect width="94.0218" height="93.375" fill="white" transform="translate(0 94.0605) rotate(-87.2917)"/>
</clipPath>
</defs>
</svg>
