<svg width="95" height="95" viewBox="0 0 95 95" fill="none" xmlns="http://www.w3.org/2000/svg">
<g clip-path="url(#clip0_10_7)">
<path d="M86.7819 23.4615C86.3692 22.4185 86.1737 21.2872 85.6773 20.286C85.102 19.1244 84.1714 18.117 83.6355 16.9432C83.1462 15.9385 82.5097 15.0032 81.7419 14.1607C79.5904 11.7402 77.1809 9.51829 74.5441 7.52336C73.0448 6.28563 71.2724 5.33768 69.326 4.73255C66.9903 4.06412 64.7119 3.21922 62.2253 2.88712C58.3542 2.31735 54.4168 2.04073 50.4539 2.06011C48.7759 2.08922 47.1312 1.94291 45.4705 2.43141C44.863 2.60974 44.23 2.7015 43.6098 2.8392C41.9559 3.20772 40.3157 2.56506 38.6156 3.19945C37.0161 3.79613 35.8863 5.0924 34.1556 5.49009C33.1405 5.76919 32.1701 6.18555 31.279 6.72433C27.8069 8.66461 24.6071 10.9926 21.7626 13.648C19.5858 15.5396 17.7065 17.6876 16.1832 20.0253C14.4272 22.9125 13.2073 25.9682 11.7668 28.954C11.1754 30.1801 10.7508 31.463 10.2505 32.7201C10.6175 34.3006 9.65385 35.6517 9.09472 37.0909C8.65264 38.1714 8.39713 39.2968 8.33737 40.4265C8.19988 42.1173 7.88666 43.8027 7.40185 45.4606C7.09381 46.5687 6.84921 47.6869 6.66904 48.8105C6.42885 50.8658 6.49933 52.9451 6.09419 54.9795C5.75432 56.6968 6.74288 58.3223 5.94259 60.0196C5.8587 60.1978 5.82628 60.3896 5.84847 60.5764C6.01693 61.6865 6.25242 62.7856 6.37456 63.9021C6.37101 64.4631 6.33464 65.0253 6.26559 65.5865C6.23902 68.2891 6.86159 70.7624 8.95363 72.7281C9.55443 73.2204 10.0686 73.7915 10.4806 74.4242C11.3557 76.0896 12.6794 77.5155 14.3394 78.5808C16.1586 79.7351 17.42 81.4981 19.5963 82.2683C20.3841 82.5001 21.0956 82.8863 21.6815 83.4002C23.4516 85.1792 25.8325 86.3814 28.4912 86.8386C29.0856 87.0002 29.6084 87.3089 30.0023 87.7307C30.5812 88.3017 31.353 88.4574 32.0838 88.7648C35.7994 90.3164 39.7522 91.3051 43.6893 92.3441C45.172 93.2459 46.9714 92.5597 48.561 92.8614C49.7975 93.0204 51.0769 92.9091 52.2927 92.5366C53.3238 92.2979 54.338 91.9961 55.3597 91.7223C56.5863 91.3937 57.8088 91.0452 59.0416 90.7417C60.2848 90.4612 61.4355 89.8735 62.3594 89.0471C63.1161 88.361 64.0282 87.8121 64.7721 87.1171C66.411 85.5866 68.0556 84.0525 69.56 82.4196C70.3522 81.4938 71.0195 80.4904 71.5465 79.4325C72.0116 78.5753 72.2205 77.6203 72.6404 76.742C72.781 76.3777 73.0016 76.0386 73.2885 75.7454C73.5754 75.4522 73.9225 75.2112 74.3086 75.0372C75.2967 74.6524 76.1575 74.0258 76.7872 73.2329C78.0525 71.6678 79.8658 70.516 80.9947 68.8462C82.3108 68.0639 83.011 66.8559 83.8163 65.7062C85.7789 62.9 87.5376 60.0367 88.0035 56.7395C88.0225 56.5492 88.0914 56.3629 88.2046 56.1958C89.374 54.657 89.1727 52.9204 89.4647 51.2514C89.759 49.5732 90.3916 47.9311 90.266 46.2091C90.1855 45.1029 90.7453 43.9862 90.4804 42.8429C90.1037 41.5907 90.0095 40.2688 90.2032 38.9522C90.4553 37.6795 90.0199 36.3429 90.1922 35.0513C90.3752 33.9287 90.3231 32.7984 90.0385 31.7193C89.6304 30.2803 89.2868 28.823 88.9121 27.3746C88.7335 26.4555 88.3168 25.5996 87.6946 24.8743C87.3005 24.4579 86.9919 23.9803 86.7819 23.4615ZM85.6815 35.5612C85.7722 35.9225 85.7715 36.3022 85.6796 36.6734C85.4377 37.6019 85.4255 38.5543 85.6437 39.4617C86.2404 41.2332 86.3533 43.1324 85.9731 45.005C85.7131 46.0779 86.3261 47.2782 86.0401 48.3382C85.241 51.2999 85.4294 54.3417 84.3683 57.27C83.9089 58.5391 83.6568 59.8526 82.8707 61.0396C82.3916 61.6865 82.0152 62.3864 81.7533 63.1177C81.1492 65.1548 79.8909 67.0212 78.1399 68.4774C77.3715 69.1446 76.8037 69.9954 76.0789 70.7095C75.9278 70.8514 75.7248 70.9384 75.5126 70.9519C75.3005 70.9654 75.096 70.9045 74.9424 70.782C74.8899 70.719 74.8534 70.6459 74.8352 70.5676C74.817 70.4892 74.8176 70.4072 74.8369 70.327C74.9826 69.5699 75.1383 68.7908 74.3945 68.2742C73.9232 67.9359 73.381 67.6825 72.795 67.5267C72.5981 67.4896 72.3914 67.495 72.1914 67.5424C71.9914 67.5897 71.8035 67.6777 71.6428 67.7994C70.1477 69.4499 68.9731 71.3067 68.1732 73.2843C66.6432 76.8833 64.2533 80.1493 61.8096 83.3443C61.0811 84.311 60.1166 85.1217 58.9963 85.7093C57.3099 86.5425 55.9761 87.8972 54.063 88.3905C52.1152 88.893 50.3294 88.3791 48.5032 88.1616C45.8194 87.9035 43.2084 87.322 40.7396 86.4326C40.3778 86.2927 39.8653 86.4166 39.526 86.2562C36.4595 84.8018 33.107 83.8693 29.9898 82.5279C26.8549 81.1708 23.8112 79.6633 20.871 78.0117C19.1632 77.0579 17.7323 75.7249 16.1894 74.5487C15.4201 73.9616 14.7037 73.3179 13.9193 72.7472C13.2719 72.3006 12.7975 71.684 12.5556 70.9746C12.0898 69.5543 11.6516 68.1256 11.2022 66.7003L11.3623 66.6575C11.0723 65.5751 10.7628 64.4975 10.5002 63.4084C10.3286 62.8733 10.2463 62.3137 10.2559 61.7472C10.5241 58.9429 10.6615 56.1182 11.2225 53.3417C11.8629 50.1761 12.1236 46.9779 13.0001 43.8328C14.3872 38.8473 15.6398 33.8383 16.9817 28.845C17.173 28.1089 17.4689 27.3923 17.8621 26.7134C18.7727 25.1804 19.7253 23.6588 20.7485 22.1806C25.5467 15.2355 23.3385 17.7106 30.3538 12.1467C30.9945 11.6383 31.6575 10.9752 32.4081 10.7907C34.5251 10.2702 35.9573 8.59748 38.0608 8.07896C40.9143 7.37613 43.6953 6.22549 46.7018 6.69755C46.9116 6.69697 47.1221 6.66862 47.3265 6.61339C50.6355 6.13143 53.9743 6.05574 57.2496 6.38843C58.4795 6.51964 59.6696 6.79259 60.9684 6.5971C62.2967 6.39802 63.2548 7.36952 64.4671 7.5393C66.5529 7.7433 68.493 8.48266 70.059 9.67035C72.1294 11.3943 74.6685 12.7375 76.1587 14.9521C77.4166 16.8223 78.8165 18.6002 80.0812 20.4616C80.4648 21.105 80.7859 21.7794 81.0412 22.4777C81.1741 23.022 81.3814 23.5455 81.6585 24.0368C84.4685 27.3971 84.4909 31.6719 85.6815 35.5612Z" fill="#F3F3F3"/>
<path d="M29.8258 35.4741C28.9211 35.4741 28.122 36.2336 28.122 37.1647L28.122 57.4517C28.122 58.3828 28.9211 59.1422 29.8258 59.1422L65.3018 59.1422C66.2065 59.1422 67.0055 58.3828 67.0055 57.4517V37.1647C67.0055 36.2336 66.2065 35.4741 65.3018 35.4741L29.8258 35.4741ZM30.6579 38.01L64.4695 38.01V39.4628L47.5637 51.2572L30.6579 39.4628V38.01ZM30.6579 42.5403L38.4506 47.9819L30.6579 54.9817L30.6579 42.5403ZM64.4695 42.5403V54.9822L56.6768 47.9823L64.4695 42.5403ZM40.59 49.4742L46.8372 53.8326C47.273 54.1363 47.8541 54.1363 48.29 53.8326L54.5371 49.4742L62.4879 56.6064L32.6386 56.6064L40.59 49.4742Z" fill="#F3F3F3"/>
</g>
<defs>
<clipPath id="clip0_10_7">
<rect width="94.0218" height="93.375" fill="white" transform="translate(94.251 0.296875) rotate(90)"/>
</clipPath>
</defs>
</svg>
