<svg width="409" height="52" viewBox="0 0 409 52" fill="none" xmlns="http://www.w3.org/2000/svg">
<g clip-path="url(#clip0_11_12)">
<path d="M392.076 30.0547C391.579 29.8231 391.768 29.9757 392.025 30.021C394.407 30.4396 398.552 30.7769 398.194 31.7803C397.683 33.2153 393.953 32.4661 391.343 32.2431C376.248 30.9547 361.207 29.9449 346.01 30.2362C319.189 30.7511 292.143 30.2829 265.34 30.9867C253.581 31.2955 241.585 30.9252 229.682 30.5944C223.574 30.4246 217.406 29.3821 211.307 29.2426C204.524 29.0393 197.754 28.3689 191.212 27.253C177.231 24.993 163.347 25.1307 149.402 25.5069C140.96 25.7344 132.452 25.7375 124.158 24.1275C121.626 23.6267 118.952 23.3627 116.292 23.3511C113.632 23.3396 111.041 23.5808 108.674 24.0605C100.933 25.5939 92.7536 24.8744 84.6626 24.7946C81.4786 24.7631 78.0718 24.2979 75.1288 24.5996C66.7715 25.4564 58.5557 24.581 50.3546 23.4994C45.1487 22.7625 39.732 22.7378 34.7629 23.4284C27.3136 24.5356 19.2472 24.0871 11.7609 24.9543C11.3571 24.936 10.961 24.8687 10.6118 24.7591C10.2626 24.6494 9.97224 24.5012 9.76926 24.3289C9.73538 24.1307 9.80565 23.9359 9.97382 23.7619C10.142 23.5879 10.4029 23.44 10.7332 23.3315C15.3142 22.2727 19.972 21.2789 24.6394 20.2958C24.8949 20.2428 25.1778 20.2192 25.4667 20.2268C25.7555 20.2344 26.0427 20.2729 26.3064 20.3394C30.6292 22.2765 35.0909 21.064 39.4491 21.0104C46.121 20.8667 52.8969 21.2686 59.4809 22.1988C64.9702 23.0185 70.2385 23.5854 75.9855 22.9346C80.4771 22.5007 85.1978 22.5305 89.8357 23.0219C96.6587 23.682 102.383 22.4935 108.531 21.9916C109.047 21.9264 109.545 21.8379 110.017 21.7272C109.544 21.5572 109.093 21.2772 108.597 21.2342C106.856 21.0974 105.109 21.0026 103.363 20.9502C88.5329 20.4834 73.7011 20.1149 58.8692 19.5077C53.6155 19.2924 48.3598 18.5114 43.1139 17.9564C42.7591 17.9185 42.1948 17.6015 42.2266 17.4588C42.2773 17.2227 42.6725 16.8599 43.0364 16.8452C45.3163 16.7435 47.7178 16.4638 49.9138 16.7204C59.0319 17.785 67.9264 16.9138 76.9623 17.3665C88.0074 17.9204 99.0688 18.191 110.105 18.825C119.221 19.3512 128.068 18.882 137.007 18.7722C154.076 18.5587 171.102 18.165 188.16 17.9031C207.782 17.6028 227.534 18.1761 247.253 18.7195C256.551 18.9736 265.888 20.0815 275.221 20.6197C283.914 21.12 292.624 21.3728 301.326 21.7428C301.92 21.7874 302.51 21.8496 303.093 21.9289C312.424 22.8915 321.729 24.1773 331.095 24.7364C343.65 25.4855 355.937 27.6932 368.649 27.5799C371.772 27.5521 375.06 28.3023 378.285 28.6493C382.611 29.1149 386.95 29.5348 392.076 30.0547ZM182.87 23.8585C187.814 24.1379 192.884 24.1208 197.68 24.7563C209.028 26.2602 220.444 26.2357 231.71 26.4725C258.377 27.0321 284.993 27.0495 311.629 27.2805C312.196 27.2671 312.756 27.2342 313.305 27.1819C312.681 26.9459 312.103 26.5996 311.405 26.4933C309.397 26.1523 307.342 25.9009 305.266 25.7424C298.59 25.3425 291.905 24.9846 285.223 24.6925C276.759 24.322 268.347 23.8427 259.889 23.0929C252.456 22.4333 244.82 22.8211 237.315 22.345C221.279 21.3285 205.38 21.4215 189.437 21.2644C183.944 21.212 178.476 21.5494 172.996 21.3221C156.075 20.6191 139.553 21.8171 122.713 21.4311C122.006 21.4572 121.317 21.5262 120.663 21.6363C121.389 21.8865 122.193 22.0776 123.036 22.2008C132.617 22.7086 142.29 23.4721 151.642 22.6C161.814 21.5501 172.69 21.9888 182.875 23.8599L182.87 23.8585Z" fill="#F40707" fill-opacity="0.65"/>
</g>
<defs>
<clipPath id="clip0_11_12">
<rect width="407.187" height="29.7973" fill="white" transform="translate(1.57739 0.118652) rotate(3.03437)"/>
</clipPath>
</defs>
</svg>
