<svg width="155" height="87" viewBox="0 0 155 87" fill="none" xmlns="http://www.w3.org/2000/svg">
<g clip-path="url(#clip0_11_10)">
<path d="M69.9487 37.3993C69.7839 34.9915 69.4159 32.5803 69.5107 30.1762C69.6771 27.7065 70.0244 25.2461 70.5503 22.8105C70.7542 22.0474 71.1597 21.3348 71.7335 20.7315C72.4939 19.855 73.0121 19.958 73.6783 20.9989C74.052 21.4498 74.3216 21.9619 74.4723 22.5068C74.6627 24.219 75.0833 26.0084 74.7006 27.6487C74.3382 29.2022 75.3127 30.5828 74.6198 32.203C74.0669 33.4957 74.5458 35.1447 74.6847 36.6266C74.9636 39.5966 74.4158 42.4927 73.6811 45.378C73.5742 45.9384 73.3451 46.477 73.0067 46.9638C72.691 47.3578 72.0554 47.8423 71.636 47.7997C71.3765 47.7022 71.1495 47.549 70.9754 47.3538C70.8013 47.1586 70.6855 46.9275 70.6384 46.6813C70.3484 43.5924 70.1725 40.4932 69.9605 37.3974L69.9487 37.3993Z" fill="#F3F3F3"/>
<path d="M117.457 32.6717C116.865 34.1239 116.505 35.4769 115.792 36.671C113.564 40.4042 111.489 44.267 107.31 46.7384C106.71 47.1508 106.033 47.4667 105.312 47.6712C103.699 47.9971 103.233 47.3736 103.452 45.8477C103.909 42.67 106.129 40.1822 107.867 37.5744C109.632 34.9238 112.053 32.6027 114.248 30.1807C114.47 29.9374 115.116 29.9933 115.565 29.9101C115.599 30.2198 115.778 30.5956 115.641 30.8274C115.06 31.8037 116.098 31.5638 116.498 31.828C116.842 32.0871 117.162 32.3691 117.457 32.6717V32.6717Z" fill="#F3F3F3"/>
<path d="M42.0731 45.3325C41.7927 45.5305 41.6136 45.7641 41.4301 45.7698C39.9239 45.8168 40.1655 46.417 40.7765 47.1901C42.7484 49.6771 44.6711 52.1942 46.6879 54.6514C47.9595 56.2005 49.4146 57.6311 50.6753 59.1862C50.9801 59.5618 50.8431 60.2204 50.909 60.7487C50.2056 60.79 49.4434 60.9974 48.8139 60.8318C47.9628 60.5804 47.1713 60.1977 46.4756 59.7014C43.313 57.5581 40.0929 55.4712 37.1029 53.1551C35.7972 52.1432 34.8975 50.6814 34.0096 49.3226C33.6713 48.8041 33.8039 47.9958 33.8786 47.331C33.9316 47.1663 34.0262 47.0137 34.155 46.8848C34.2839 46.7559 34.4437 46.654 34.6225 46.5868C34.7923 46.5674 34.9642 46.5823 35.1252 46.6304C35.2862 46.6784 35.432 46.7583 35.5518 46.864C36.4471 47.6538 37.2707 48.5073 38.1581 49.3018C38.2797 49.4104 38.6521 49.3655 38.8672 49.2921C38.9434 49.2664 38.9771 48.907 38.8907 48.766C38.4492 48.2101 38.0639 47.6206 37.739 47.0042C37.4255 46.1541 37.2137 45.2682 38.0447 44.4137C39.1008 43.3277 39.9402 44.4213 40.8539 44.5234C41.2875 44.5739 41.6538 45.0397 42.0731 45.3325Z" fill="#F3F3F3"/>
<path d="M132.754 67.2867C132.03 67.3363 131.898 67.3606 131.77 67.3541C130.944 67.2985 129.886 67.8654 129.426 66.7878C128.966 65.7101 129.958 65.219 130.761 65.0649C132.449 64.7396 131.391 63.1224 132.515 62.5903C134.899 61.4611 137.184 60.1336 139.653 59.1874C143.63 57.6628 147.721 56.3768 151.77 55.0015C152.121 54.8531 152.51 54.7903 152.894 54.8196C153.434 54.9609 153.957 55.1463 154.457 55.3734C154.283 55.7763 154.033 56.151 153.717 56.4812C153.273 56.7009 152.801 56.874 152.312 56.9969C151.729 57.2429 150.913 57.4116 150.644 57.8312C148.595 61.0367 144.583 61.4121 141.411 62.9618C140.285 63.5108 139.052 63.7982 138.256 64.8123C136.783 66.6894 134.45 66.9855 132.754 67.2867Z" fill="#F3F3F3"/>
<path d="M34.0054 82.5777C31.5089 82.2049 28.995 81.8987 26.5212 81.4388C24.1543 81.0274 21.8191 80.4939 19.5275 79.841C17.296 79.1763 14.828 78.6274 14.0969 76.1875C13.9804 75.7975 13.7397 75.2109 13.9352 75.0244C14.1251 74.8807 14.3481 74.7754 14.5881 74.7162C14.8281 74.657 15.0791 74.6452 15.323 74.6819C17.7965 75.1801 20.2576 75.7332 22.7031 76.3266C26.1281 77.1567 29.5357 78.0388 32.9513 78.8972C33.8228 79.061 34.6785 79.2806 35.5118 79.5541C36.4006 79.9607 37.2597 80.415 38.0842 80.9145C37.6962 81.35 37.2 81.7012 36.6349 81.9401C36.0698 82.1791 35.4516 82.2993 34.8294 82.2911C34.5703 82.2868 34.3098 82.3235 34.0498 82.3413C34.0344 82.42 34.0196 82.4991 34.0054 82.5777Z" fill="#F3F3F3"/>
</g>
<defs>
<clipPath id="clip0_11_10">
<rect width="145.426" height="62.782" fill="white" transform="translate(0.978043 24.7568) rotate(-9.55417)"/>
</clipPath>
</defs>
</svg>
