<svg width="177" height="39" viewBox="0 0 177 39" fill="none" xmlns="http://www.w3.org/2000/svg">
<g clip-path="url(#clip0_11_15)">
<path d="M85.5407 14.3387C84.3993 14.129 83.1482 14.1538 81.946 14.085C80.5715 14.009 79.1971 13.942 77.8232 13.8702C76.6203 13.8077 75.4176 13.7442 74.2149 13.6799C69.9199 13.4508 65.6249 13.2219 61.3302 12.993C60.2995 12.9385 59.2664 12.8741 58.2396 12.8462C57.5572 12.8011 56.8803 12.8177 56.2394 12.895C54.9412 13.1205 53.584 13.0445 52.2129 12.9786C49.122 12.83 46.0301 12.6717 42.9402 12.5345C42.2566 12.4768 41.5754 12.4891 40.9358 12.5707C39.8318 12.7424 38.6395 12.7858 37.4365 12.6981C35.379 12.6116 33.3201 12.5393 31.2588 12.4523C30.0597 12.4018 28.8948 12.3443 27.7521 12.5503C27.0161 12.6836 26.0947 12.622 25.2486 12.6135C22.7167 12.5881 20.0887 12.209 17.6884 12.6799C17.3579 12.7067 17.0129 12.7014 16.67 12.6645C15.1338 12.6241 13.6027 12.5482 12.1623 12.8213C11.5811 12.9314 10.8299 12.8623 10.1526 12.8573C9.29483 12.8163 8.44017 12.8054 7.59452 12.8245C6.58929 12.8719 5.66353 13.0627 4.91587 13.3766C4.85426 13.4044 4.9143 13.5311 4.98067 13.5988C5.13208 13.7684 5.36462 13.9195 5.65363 14.0359C5.94263 14.1524 6.27734 14.2299 6.62226 14.2602C8.51105 14.4118 10.4028 14.5357 12.2918 14.6377C20.1945 15.0643 28.0964 15.4844 35.9977 15.8979L35.9991 15.9248C44.7598 16.3893 53.5198 16.8464 62.2811 17.3255C63.8039 17.4087 65.3762 17.3587 66.8288 17.8589C67.8571 17.5752 68.7872 18.0693 69.767 18.1492C70.968 18.2472 72.1716 18.3013 73.3741 18.3777C74.749 18.4653 76.124 18.5522 77.4986 18.6482C78.0127 18.6839 78.6038 18.6695 79.0281 18.8058C80.9969 19.4389 83.0757 19.3665 85.1118 19.5139C87.6887 19.6994 90.2667 19.8359 92.8445 20.0061C93.5235 20.0512 94.2803 20.0631 94.8652 20.2391C96.3487 20.6854 97.8853 20.7271 99.4191 20.8309C101.309 20.9586 103.2 21.0492 105.09 21.171C105.77 21.2145 106.552 21.2059 107.113 21.3876C108.591 21.867 110.121 21.8905 111.658 21.9879C113.72 22.1189 115.782 22.2323 117.843 22.3793C118.525 22.4089 119.207 22.5066 119.851 22.6668C120.807 22.9236 121.833 23.0767 122.858 23.1157C125.43 23.2747 128.003 23.4687 130.574 23.6582C130.722 23.6689 130.868 23.7637 131.015 23.8193C130.763 23.8847 130.517 24.0194 130.258 24.0049C124.934 23.7275 119.609 23.4378 114.284 23.1359C113.601 23.1185 112.915 23.0265 112.269 22.8659C111.11 22.5227 109.93 22.4605 108.731 22.3965C99.6267 21.9087 90.5222 21.4228 81.4176 20.9387C75.7488 20.639 70.0802 20.3478 64.4117 20.0651C63.5635 20.023 62.6155 19.9411 61.8965 20.0776C60.5909 20.327 59.2457 20.229 57.881 20.1669C54.1021 19.9946 50.3238 19.8156 46.5487 19.6486C45.8679 19.6185 45.0842 19.5268 44.5314 19.6471C43.0966 19.9647 41.5532 19.8128 40.0253 19.7697C38.4836 19.7261 36.9418 19.6777 35.3998 19.6313C33.5144 20.0706 31.3957 19.8218 29.3629 19.7167C27.7442 19.6329 26.3729 19.8485 24.9909 20.1029C24.8444 20.1291 24.6299 20.2266 24.6566 20.2664C24.7452 20.4304 24.9049 20.5863 25.1228 20.7214C25.7991 21.046 26.6615 21.2355 27.5245 21.2491C32.8498 21.558 38.1763 21.8704 43.5038 22.1863C44.5276 22.2478 45.6278 22.2508 46.5599 22.4748C47.871 22.7667 49.2433 22.9386 50.6099 22.982C56.968 23.3154 63.3249 23.6878 69.6792 23.9941C72.2291 24.117 74.8347 24.4831 77.32 24.1551C77.6488 24.1468 77.9879 24.1958 78.2848 24.2945C79.0852 24.5218 79.9756 24.6123 80.8139 24.5515C82.7871 24.3824 84.7099 24.0926 86.7832 24.7494C86.8901 24.7837 87.1061 24.7319 87.2516 24.7007C88.2047 24.4944 89.2574 24.6175 90.2777 24.6689C96.8043 24.9981 103.332 25.3353 109.86 25.6806C110.714 25.7257 111.663 25.7235 112.405 25.9325C113.426 26.2196 114.417 25.9492 115.367 26.233C116.523 26.5785 117.738 26.51 118.928 26.6027C119.958 26.683 120.99 26.7266 122.021 26.7917C123.74 26.9005 125.459 27.0115 127.176 27.1248C128.034 27.1422 128.899 27.2684 129.694 27.4923C130.493 27.7569 131.343 27.7928 132.204 27.8558C134.421 28.0181 136.678 28.0056 138.799 28.6648C139.129 28.7384 139.478 28.7764 139.82 28.7763C141.715 28.8928 143.589 29.0644 145.357 29.5899C150.378 30.4182 155.279 31.5169 159.977 32.8667C160.292 32.9457 160.624 32.9966 160.958 33.0171C161.039 33.0223 161.119 33.0176 161.191 33.0033C161.263 32.9891 161.325 32.9657 161.373 32.9351C161.499 32.7951 161.701 32.6093 161.601 32.4836C161.114 31.8779 160.224 31.3606 159.11 31.0347C156.464 30.256 154.039 29.2257 151.104 28.7541C150.306 28.6259 149.586 28.2744 148.841 28.0161C148.79 27.9982 148.79 27.8558 148.829 27.8496C149.12 27.7829 149.439 27.7465 149.771 27.7421C156.125 28.0654 162.48 28.3794 168.837 28.7466C170.379 28.8361 171.886 28.7105 173.199 28.3828C173.34 28.3492 173.555 28.2485 173.527 28.218C173.415 28.0453 173.22 27.885 172.962 27.7535C171.646 27.2586 170.323 26.7451 168.717 26.6191C167.651 26.5355 166.751 26.2 165.769 25.9935C164.787 25.7871 163.667 25.7869 162.763 25.5235C161.598 25.1832 160.369 25.213 159.25 24.9601C157.932 24.6624 156.664 24.3457 155.254 24.2844C154.741 24.2834 154.219 24.2136 153.739 24.0817C152.284 23.5776 150.73 23.5856 149.195 23.4605C148.337 23.3905 147.363 23.4245 146.648 23.2016C144.664 22.5836 142.608 22.6269 140.569 22.4378C139.887 22.3807 139.214 22.2656 138.578 22.0974C137.775 21.8895 136.919 21.7628 136.063 21.7251C134.344 21.6118 132.625 21.5037 130.907 21.3784C130.225 21.3289 129.443 21.336 128.882 21.1514C127.237 20.6103 125.522 20.6638 123.822 20.514C122.972 20.4678 122.123 20.3519 121.308 20.1707C120.345 19.9235 119.322 19.7689 118.296 19.7154C116.411 19.5928 114.526 19.4474 112.64 19.3003C112.493 19.2889 112.35 19.1919 112.205 19.1348C112.434 19.0619 112.658 18.9141 112.893 18.9274C118.734 19.2402 124.574 19.5648 130.415 19.9011C130.926 19.9121 131.441 19.9814 131.924 20.1041C133.232 20.5086 134.595 20.5571 135.966 20.6392C138.2 20.7729 140.433 20.9139 142.667 21.0437C143.352 21.0593 144.041 21.1655 144.669 21.3521C145.282 21.5537 145.96 21.6828 146.648 21.7287C148.868 21.8937 151.08 21.9817 153.246 22.5503C154.162 22.7905 155.371 22.6529 156.292 22.8904C157.587 23.1985 158.916 23.4499 160.266 23.6416C161.769 23.9088 163.243 24.2355 164.676 24.6186C165.313 24.787 166.004 24.8715 166.679 24.8636C166.762 24.8578 166.84 24.8432 166.908 24.8206C166.976 24.798 167.033 24.768 167.075 24.7322C167.095 24.6973 167.099 24.6594 167.086 24.6214C167.072 24.5834 167.043 24.5464 166.999 24.5132C166.819 24.353 166.58 24.21 166.298 24.094C164.452 23.5074 162.59 22.9373 160.723 22.3717C160.106 22.1821 159.472 22.0113 158.824 21.8603C156.874 21.4145 154.919 20.9609 152.949 20.5682C151.644 20.308 150.211 20.2929 148.99 19.8208C147.616 19.7076 146.241 19.6062 144.87 19.4757C144.187 19.4385 143.507 19.3403 142.859 19.1856C141.737 18.8849 140.528 18.7153 139.328 18.6901C138.125 18.6537 136.919 18.462 135.819 18.1323C135.577 18.0726 135.317 18.0425 135.063 18.0446C134.809 18.0467 134.567 18.0809 134.359 18.1444C134.081 18.229 133.753 18.2698 133.411 18.2623C133.069 18.2549 132.725 18.1996 132.416 18.1023C131.808 17.8953 131.134 17.7589 130.446 17.7038C128.412 17.5431 126.346 17.5742 124.365 17.0551C123.732 17.1423 123.056 17.3082 122.406 17.0977C121.272 16.7299 120.107 16.6475 118.896 16.5797C112.54 16.2232 106.181 15.8499 99.8241 15.4916C98.7861 15.4332 97.7693 15.3747 96.8137 15.0499C96.5884 14.9704 96.3339 14.9208 96.0762 14.9062C95.8185 14.8916 95.5668 14.9124 95.3467 14.9666C94.9932 15.0683 94.5812 15.1154 94.1529 15.1029C93.7247 15.0905 93.2957 15.0191 92.9102 14.896C92.4541 14.7402 91.9431 14.643 91.4262 14.6137C90.9092 14.5844 90.4037 14.6241 89.9579 14.7288C89.8102 14.7617 89.6476 14.7779 89.4793 14.7767C89.311 14.7755 89.1405 14.7569 88.9777 14.7218C87.8516 14.5287 86.7025 14.552 85.5407 14.3387Z" fill="#EAD3AA" fill-opacity="0.5"/>
</g>
<defs>
<clipPath id="clip0_11_15">
<rect width="174.599" height="22" fill="white" transform="translate(2.35645 0.895996) rotate(5.20215)"/>
</clipPath>
</defs>
</svg>
