<svg width="228" height="191" viewBox="0 0 228 191" fill="none" xmlns="http://www.w3.org/2000/svg">
    <g clip-path="url(#clip0_11_18)">
        <path d="M178.029 65.6759C183.555 68.5531 188.85 71.8544 193.865 75.5496C200.523 80.5124 205.861 87.0254 209.408 94.5144C212.043 100 212.825 106.181 211.636 112.13C211.09 115.042 209.406 117.842 207.808 120.427C205.979 123.21 203.962 125.867 201.771 128.378C200.281 130.129 198.697 131.797 197.026 133.377C193.763 136.649 190.125 139.528 186.186 141.954C182.694 144.025 178.968 145.679 175.085 146.883C172.089 147.826 169.208 149.171 166.172 149.94C161.105 151.221 156.021 152.48 150.694 152.418C147.431 152.38 144.155 153.039 140.903 152.903C133.85 152.606 126.814 152.18 119.8 151.021C114.59 150.16 109.627 148.459 104.487 147.406C101.66 146.828 98.9801 145.487 96.2586 144.427C91.1459 142.435 86.1567 140.115 80.8411 138.67C80.7291 138.631 80.6203 138.583 80.5154 138.528C71.1119 134.331 61.3012 130.971 52.3697 125.824C47.4805 123.006 42.6016 120.076 38.0781 116.561C35.3355 114.433 32.3394 112.514 29.4674 110.484C26.128 108.187 23.0737 105.504 20.3692 102.489C18.5356 100.396 16.5131 98.4909 15.178 95.947C12.9507 91.7046 12.1735 87.5533 13.915 82.8855C14.5321 81.1991 15.3913 79.6117 16.466 78.1727C17.6108 76.7394 18.8331 75.3694 20.1276 74.0689C22.0397 71.9038 24.2642 70.034 26.7287 68.5201C30.2424 66.4866 33.5879 64.1533 37.1655 62.2437C44.0535 58.5676 51.5528 56.3131 58.9776 54.0902C64.8427 52.3345 70.8444 50.7696 77.1116 50.5039C79.2383 50.413 81.4168 49.5844 83.6404 49.4146C87.7044 49.1059 91.7581 48.4798 95.8234 48.4286C99.988 48.3764 104.159 48.9291 108.332 49.0832C114.372 49.3058 120.303 50.3967 126.244 51.3456C130.114 51.9639 133.927 52.9553 137.755 53.8265C141.594 54.6984 145.421 55.6238 149.25 56.5419C151.047 56.9729 152.862 57.3561 154.625 57.9048C158.942 59.2542 163.246 60.6241 167.619 61.8115C171.442 62.8521 175.089 64.5609 178.029 65.6759ZM35.0274 79.6347C34.0814 82.378 33.3213 85.2029 32.1495 87.8462C29.5858 93.6413 31.5139 98.4135 35.1443 102.994C38.1312 106.76 41.873 109.711 45.6909 112.48C49.2583 115.066 52.8015 117.798 56.9405 119.521C57.5691 119.836 58.1809 120.184 58.7733 120.563C60.6692 121.6 62.4712 123.088 64.4981 123.532C66.6498 124.004 68.3701 125.206 70.359 125.877C72.348 126.548 74.3293 127.214 76.2977 127.929C79.1529 128.965 81.9315 130.275 84.8525 131.054C90.0973 132.451 95.4251 133.535 100.716 134.759C106.247 135.993 111.855 136.853 117.5 137.333C118.513 137.427 118.779 137.512 118.403 136.465C118.113 135.658 118.398 135.534 119.219 135.694C121.83 136.203 124.489 137.073 127.078 136.932C130.185 136.762 133.256 135.765 136.309 134.997C139.148 134.283 141.937 133.376 144.76 132.6C146.676 132.074 148.602 131.575 150.544 131.154C155.188 130.149 159.629 128.526 164.068 126.886C166.367 126.037 168.548 124.812 171.114 124.798C171.975 124.791 172.507 124.89 172.248 125.923C172.186 126.255 172.144 126.592 172.125 126.929C172.4 126.748 172.679 126.571 172.952 126.384C177.879 123.011 181.601 118.39 185.59 114.07C187.485 112.041 189.1 109.77 190.394 107.317C193.794 100.74 192.867 94.245 188.964 88.1707C186.467 84.2846 182.805 81.593 178.691 79.4696C175.362 77.7512 172.134 75.8362 168.865 74.0023C168.665 73.8904 168.505 73.708 168.308 73.5881C166.921 72.7397 165.596 71.7411 164.116 71.1024C162.785 70.5274 161.297 70.7267 160.044 69.422C159.12 68.4592 157.266 68.4017 155.845 67.8868C153.159 66.9102 150.542 65.6938 147.797 64.9404C142.113 63.3804 136.377 62.0049 130.638 60.6584C126.703 59.7344 122.749 58.8376 118.762 58.1976C114.425 57.5044 110.043 57.1061 105.678 56.6014C101.559 56.1239 97.4671 55.3154 93.2965 55.4819C91.4399 55.5558 89.5549 56.0174 87.7405 55.8035C82.6213 55.2064 77.6097 56.2373 72.5966 56.6995C68.1513 57.1093 63.7716 58.4727 59.4386 59.6807C54.4519 61.0714 49.8291 63.1073 45.7061 66.4901C41.1991 70.1982 37.4072 74.2515 35.0283 79.6352L35.0274 79.6347ZM175.841 68.6579C174.44 68.1715 171.687 67.2099 168.932 66.2521C166.73 65.487 164.528 64.7193 162.32 63.9732C162.152 63.916 161.929 64.0184 161.732 64.0471C161.84 64.2448 161.967 64.4316 162.111 64.6046C162.395 64.9324 162.723 65.2192 163.086 65.4566C169.576 68.9894 175.968 72.6627 181.942 77.0519C185.515 79.6779 188.842 82.44 191.3 86.2131C195.605 92.8201 196.249 99.7768 193.047 106.793C191.438 110.314 188.859 113.409 186.593 116.608C185.367 118.273 184.03 119.854 182.589 121.339C179.49 124.651 175.858 127.34 172.112 129.868C168.573 132.322 164.766 134.371 160.765 135.977C156.909 137.472 152.846 138.025 148.84 138.815C143.819 139.81 138.67 140.088 133.639 140.909C126.658 142.048 119.702 141.704 112.722 141.699C111.472 141.698 110.227 141.275 108.975 141.071C107.381 140.811 105.783 140.568 104.183 140.34C103.956 140.337 103.73 140.363 103.511 140.419C103.623 140.59 103.693 140.856 103.85 140.927C104.997 141.527 106.192 142.032 107.422 142.435C110.322 143.202 113.293 143.702 116.182 144.504C121.905 146.09 127.767 146.796 133.641 147.222C138.267 147.587 142.912 147.628 147.541 147.346C153.104 146.968 158.629 146.063 164.163 145.332C165.314 145.181 166.421 144.735 167.563 144.52C172.605 143.517 177.452 141.724 181.925 139.21C184.939 137.495 187.812 135.548 190.519 133.386C195.817 129.274 200.523 124.456 204.505 119.067C205.745 117.406 206.12 115.172 207.844 113.794C208.377 110.733 209.39 107.732 209.045 104.561C208.326 97.9375 205.314 92.1842 201.152 87.2433C194.594 79.4586 186.208 73.8793 175.841 68.6579ZM32.7963 106.584L34.0307 106.719C33.9174 106.275 33.751 105.845 33.5351 105.44C32.9394 104.576 32.2437 103.781 31.621 102.935C30.344 101.187 29.4281 99.204 28.9267 97.1028C28.4253 95.0017 28.3484 92.824 28.7006 90.6968C29.275 86.8591 30.795 83.1125 32.2752 79.4802C34.0796 75.0517 37.3818 71.5304 40.1883 67.7198C40.5596 67.2163 40.9196 66.7051 41.2847 66.197C40.6076 66.3769 39.9418 66.5962 39.2907 66.8537C38.5535 67.1909 37.8906 67.6852 37.1616 68.0429C29.7272 71.6874 22.3685 75.3932 17.7397 82.7539C17.0897 83.6716 16.6304 84.7099 16.3887 85.8083C15.6231 89.7656 17.367 92.6871 19.6381 95.6732C23.1831 100.333 28.6197 102.594 32.7963 106.584Z" fill="#EAD3AA" fill-opacity="0.5"/>
    </g>
    <defs>
        <clipPath id="clip0_11_18">
            <rect width="193.683" height="119.259" fill="white" transform="translate(176 190.696) rotate(-154.652)"/>
        </clipPath>
    </defs>
</svg>
