<svg width="207" height="146" viewBox="0 0 207 146" fill="none" xmlns="http://www.w3.org/2000/svg">
    <g clip-path="url(#clip0_12_19)">
        <path d="M104.077 16.2457C109.904 14.7645 115.946 14.2993 121.875 14.8756C124.569 15.1438 127.141 15.9487 129.405 17.2328C130.536 17.7968 131.603 18.4547 132.593 19.1985C135.381 21.521 138.684 21.8415 142.311 21.1576C142.695 21.068 143.089 21.0294 143.482 21.0433C143.681 21.0597 144.005 21.307 143.997 21.4461C143.978 21.7456 143.834 22.265 143.65 22.3067C141.119 22.8833 138.548 23.9513 135.99 22.9869C133.97 22.2539 132.053 21.32 130.274 20.2019C127.798 18.5571 124.798 17.6491 121.669 17.5974C119.105 17.5475 116.519 17.8125 113.943 17.9572C112.402 18.0433 109.718 18.32 108.178 18.4344C108.46 18.2518 107.791 18.463 108.178 18.4344C105.549 20.1414 102.372 19.8706 99.5221 20.7424C96.4403 21.6841 93.3972 22.7391 90.3242 23.708C89.0842 24.0987 87.7307 24.2365 86.5648 24.7572C79.5344 27.9014 72.649 31.3006 66.4282 35.7048C61.5663 39.1446 56.5837 42.4879 52.0582 46.2697C46.1863 51.174 40.4912 56.2924 35.1306 61.651C29.1435 67.6083 24.4071 74.486 21.1689 81.9245C18.5318 87.859 17.5639 94.2373 18.3542 100.473C18.8138 104.293 19.5228 108.013 22.3011 110.966C26.1818 115.086 30.9144 118.48 36.253 120.972C40.4118 122.977 44.7462 124.688 49.219 126.089C55.6046 128.049 62.3491 129.024 69.1778 128.975C73.1748 128.904 77.1734 128.642 81.1568 128.19C86.9671 127.605 92.8163 127.409 98.5503 126.173C102.247 125.397 105.901 124.44 109.498 123.306C113.432 122.093 117.283 120.645 121.023 118.973C129.602 115.008 138.373 111.35 146.251 106.179C149.116 104.299 152.273 102.763 154.993 100.732C160.985 96.2575 167.413 92.1605 172.324 86.6448C176.112 82.3896 180.121 78.2821 182.889 73.2942C184.649 70.119 187.13 67.2032 188.486 63.8452C189.554 61.2042 190.171 58.4268 190.943 55.7013C191.9 52.3235 189.57 50.5168 186.982 48.9587C185.372 48.0218 183.678 47.2053 181.913 46.5169C176.295 44.2385 170.314 42.8297 164.293 41.6711C159.579 40.7657 154.702 40.435 149.888 39.9081C145.948 39.4739 141.941 39.512 137.969 40.0212C134.121 40.474 130.256 40.7267 126.394 40.7782C125.211 40.8053 124.041 40.0809 122.865 39.7015C123.352 38.2212 124.787 38.201 126.053 37.9751C134.105 36.6187 142.27 36.1492 150.367 36.5772C155.035 36.7731 159.418 38.0333 163.977 38.5647C170.042 39.2684 175.603 41.2345 181.164 43.2684C184.71 44.5665 187.946 46.4338 190.721 48.7831C192.584 50.3568 194.487 52.328 193.398 55.1905C193.832 61.7521 190.85 67.5399 187.421 73.1516C185.18 76.8182 182.539 80.2987 180.023 83.8328C176.555 88.7028 171.913 92.6503 167.227 96.5124C163.155 99.8686 158.889 103.044 154.565 106.132C151.964 107.946 149.242 109.609 146.416 111.113C141.047 114.044 135.659 116.955 130.156 119.661C126.278 121.59 122.269 123.28 118.156 124.72C113.996 126.156 109.841 127.52 105.575 128.681C102.953 129.395 100.339 130.166 97.6654 130.711C93.7064 131.519 89.7135 131.629 85.7024 131.692C83.2621 131.731 80.8071 132.149 78.3688 132.374C68.3115 133.302 58.5305 132.674 49.0876 129.893C43.5234 128.17 38.1801 125.954 33.1332 123.278C29.6218 121.446 26.3762 119.241 23.4626 116.707C17.996 112.051 14.472 106.312 14.2409 99.3591C13.9282 93.0981 14.9941 86.7929 17.3771 80.807C19.6272 75.3118 22.7329 70.434 26.3023 65.6172C29.8249 60.8787 33.8116 56.4267 38.2117 52.3178C41.213 49.5062 43.9478 46.4469 47.5201 44.0832C51.1233 41.6988 54.234 38.7009 57.7612 36.2088C63.6628 32.0261 69.9365 28.302 76.5112 25.0789C79.6163 23.5802 82.816 22.258 86.0909 21.1204C91.9695 19.049 97.8894 17.0571 104.077 16.2457Z" fill="#EAD3AA" fill-opacity="0.5"/>
    </g>
    <defs>
        <clipPath id="clip0_12_19">
            <rect width="188.49" height="112.62" fill="white" transform="translate(0.0892792 35.3523) rotate(-10.8101)"/>
        </clipPath>
    </defs>
</svg>
