<svg width="1030" height="295" viewBox="0 0 1030 295" fill="none" xmlns="http://www.w3.org/2000/svg">
<g clip-path="url(#clip0_38_89)">
<path d="M0 4.46533H57.6182C94.9351 4.46533 113.434 24.2001 113.434 63.9993V77.7498C113.434 117.106 98.5813 140.858 55.9496 140.858H43.26V229.16H0V4.46533ZM43.26 105.817H50.264C66.6616 105.817 70.1327 96.6297 70.1327 77.9146V62.4646C70.1327 47.9416 66.7337 38.5686 52.3343 38.5686H43.26V105.817Z" fill="#F3F3F3"/>
<path d="M128.977 4.46533H172.237V191.359H226.6L222.717 229.16H128.987L128.977 4.46533Z" fill="#F3F3F3"/>
<path d="M288.009 175.692L282.478 229.16H238.404L270.179 4.45483H334.626L367.154 229.16H322.194L316.014 175.682L288.009 175.692ZM312.337 137.582C309.144 108.825 304.664 65.0909 302.563 43.5742H300.863C300.091 59.2302 294.755 109.793 291.778 137.582H312.337Z" fill="#F3F3F3"/>
<path d="M392.327 229.16V157.214C392.278 153.288 391.746 149.382 390.741 145.586L351.23 4.46533H398.311C404.368 36.8691 411.433 74.1036 414.204 102.408H415.605C419.261 75.525 426.461 37.518 432.312 4.46533H476.89L436.514 149.191C435.776 152.364 435.43 155.615 435.484 158.873V229.16H392.327Z" fill="#F3F3F3"/>
<path d="M484.584 4.46533H527.844V191.359H582.166L578.324 229.16H484.594L484.584 4.46533Z" fill="#F3F3F3"/>
<path d="M635.613 4.46533V229.16H592.456V4.46533H635.613Z" fill="#F3F3F3"/>
<path d="M693.077 159.913V175.476C693.077 190.256 696.744 197.106 706.601 197.106C716.458 197.106 718.94 186.93 718.94 176.341C718.94 155.133 714.954 148.995 692.006 129.795C666.698 108.351 653.679 95.6612 653.679 62.557C653.679 30.4519 664.309 0.880615 706.879 0.880615C752.075 0.880615 758.75 31.7085 758.75 57.4276V70.3541H717.91V56.892C717.91 43.2651 715.665 36.5186 707.116 36.5186C699.144 36.5186 696.569 43.3784 696.569 56.0886C696.569 69.6228 699.03 76.3075 717.611 90.8099C750.664 116.776 762.519 131.351 762.519 168.359C762.519 203.543 750.499 232.528 705.869 232.528C663.001 232.528 650.764 206.675 650.764 173.375V159.913H693.077Z" fill="#F3F3F3"/>
<path d="M799.641 42.7299H766.917V4.51685H875.737V42.7299H842.777V229.16H799.62L799.641 42.7299Z" fill="#F3F3F3"/>
<path d="M997.792 98.3345L738.057 160.931L770.276 294.619L1030.01 232.022L997.792 98.3345Z" fill="#F3F3F3"/>
<path d="M849.307 210.62C859.164 233.445 852.109 250.79 832.271 259.38C821.672 263.953 822.136 265.014 811.547 269.587C807.324 271.41 804.523 269.124 802.7 264.911C790.34 236.226 787.899 237.256 775.518 208.57C773.695 204.357 775.837 198.497 779.947 196.725C790.587 192.121 791.051 193.192 801.69 188.598C821.127 180.204 838.647 185.9 849.307 210.62ZM831.663 211.166C826.678 199.898 817.738 195.51 806.83 200.217C799.733 203.307 792.163 199.877 793.007 207.561C795.778 232.6 795.521 235.711 811.856 254.941C816.873 260.832 819.87 249.925 826.967 246.866C837.864 242.158 840.532 235.175 835.639 223.866C833.095 217.727 834.3 217.222 831.663 211.166Z" fill="black"/>
<path d="M861.461 168.936C861.224 165.269 862.491 162.55 865.818 161.128C867.157 160.552 866.621 159.295 867.96 158.718C871.143 157.348 873.955 160.078 876.458 162.776C899.489 187.177 900.58 186.147 923.601 210.558C926.578 213.792 927.721 219.179 924.734 222.063C921.747 224.947 916.267 223.618 913.28 220.394C908.748 215.523 910.726 209.878 904.072 210.146C890.023 210.713 889.24 212.999 879.198 222.836C874.439 227.491 878.703 228.542 879.136 235.196C879.445 239.573 876.53 244.095 872.348 244.311C868.166 244.527 863.809 240.407 863.511 236.071C862.213 202.493 863.439 202.431 861.461 168.936ZM895.657 201.679C897.717 199.939 893.473 198.909 891.609 196.911C885.038 189.876 879.249 184.396 875.644 176.063C874.975 174.518 873.893 171.624 872.255 172.335C870.618 173.045 870.752 176.341 871.421 177.886C875.016 186.219 877.993 193.584 878.631 203.204C878.817 205.923 874.8 207.859 877.333 208.889C886.521 212.618 888.2 207.859 895.657 201.679Z" fill="black"/>
<path d="M916.999 181.378C908.213 161.025 914.311 138.386 932.202 130.661C950.093 122.936 972.845 133.112 981.415 152.95C990.469 173.931 982.249 197.395 964.358 205.12C946.467 212.845 925.836 201.844 916.999 181.378ZM959.414 193.676C970.312 188.969 972.722 179.256 967.829 167.926C964.739 160.83 964.101 161.128 961.031 154.032C956.149 142.702 948.671 138.788 937.753 143.495C926.835 148.202 924.693 156.308 929.575 167.617C932.665 174.704 930.842 175.486 933.911 182.573C938.794 193.934 948.506 198.383 959.414 193.676Z" fill="black"/>
</g>
<defs>
<clipPath id="clip0_38_89">
<rect width="1030" height="293.828" fill="white" transform="translate(0 0.880615)"/>
</clipPath>
</defs>
</svg>
