<svg width="132" height="132" viewBox="0 0 132 132" fill="none" xmlns="http://www.w3.org/2000/svg">
<g clip-path="url(#clip0_10_5)">
<path class="gold" d="M58.5836 81.3938C73.6742 81.3938 81.9305 68.8883 81.9305 58.0469C81.9305 57.6953 81.9227 57.336 81.907 56.9844C83.5131 55.8229 84.8992 54.3842 86 52.736C84.5042 53.4015 82.9161 53.8361 81.2898 54.025C83.0021 52.9986 84.2842 51.3863 84.8984 49.4867C83.2876 50.4414 81.526 51.1148 79.6891 51.4781C78.4514 50.1631 76.815 49.2923 75.0328 49.0006C73.2506 48.7088 71.422 49.0122 69.8296 49.864C68.2372 50.7157 66.9697 52.0683 66.2231 53.7127C65.4765 55.357 65.2924 57.2015 65.6992 58.961C62.4375 58.7973 59.2466 57.95 56.3333 56.474C53.42 54.998 50.8495 52.9262 48.7883 50.393C47.7407 52.1992 47.4201 54.3365 47.8917 56.3706C48.3633 58.4047 49.5918 60.1829 51.3273 61.3438C50.0244 61.3024 48.75 60.9516 47.6094 60.3203V60.4219C47.6082 62.3174 48.2635 64.1548 49.4638 65.6217C50.6642 67.0887 52.3355 68.0947 54.1937 68.4688C52.9868 68.799 51.72 68.8471 50.4914 68.6094C51.0158 70.2395 52.036 71.6653 53.4096 72.6877C54.7833 73.7101 56.4419 74.2781 58.1539 74.3125C55.2474 76.5956 51.657 77.834 47.9609 77.8281C47.3055 77.8271 46.6507 77.787 46 77.7078C49.7548 80.1167 54.1226 81.3961 58.5836 81.3938Z" fill="#F3F3F3"/>
</g>
<g clip-path="url(#clip1_10_5)">
<path class="gold" d="M28.6251 38.7373C27.8193 39.5175 26.8488 40.1308 26.1135 40.9724C25.2602 41.9482 24.6854 43.1934 23.8059 44.1375C23.0646 44.9738 22.4439 45.9197 21.9591 46.9513C20.5455 49.865 19.4141 52.9411 18.5793 56.1404C18.0091 57.9991 17.8111 59.9993 17.9964 62.0291C18.2721 64.443 18.3629 66.8713 19.007 69.2958C19.9611 73.0905 21.2114 76.8343 22.745 80.4886C23.4137 82.0278 23.9075 83.6034 24.9941 84.9511C25.3912 85.4441 25.7181 85.994 26.0825 86.5143C27.0556 87.9015 27.0891 89.6628 28.3255 90.9911C29.4885 92.2408 31.1183 92.7889 32.1477 94.2359C32.7938 95.067 33.5497 95.8044 34.3883 96.4217C37.509 98.8877 40.8838 100.954 44.4252 102.567C47.0056 103.854 49.7091 104.769 52.4516 105.283C55.7909 105.801 59.0808 105.759 62.3906 105.948C63.7496 106.026 65.0974 105.927 66.4502 105.909C67.7702 104.965 69.3871 105.339 70.9308 105.305C72.0983 105.3 73.2358 105.106 74.3024 104.729C75.9173 104.21 77.5944 103.854 79.3117 103.668C80.4533 103.529 81.58 103.327 82.6872 103.064C84.678 102.5 86.5723 101.64 88.607 101.236C90.3237 100.893 91.4475 99.358 93.3218 99.4483C93.5186 99.4577 93.7082 99.4143 93.8723 99.3223C94.8336 98.7421 95.759 98.1041 96.744 97.5642C97.2636 97.353 97.797 97.1716 98.342 97.0207C100.849 96.0116 102.896 94.4904 103.913 91.8056C104.138 91.0622 104.469 90.3688 104.896 89.746C106.1 88.3005 106.911 86.5322 107.26 84.5909C107.631 82.4685 108.778 80.6287 108.657 78.3233C108.57 77.5068 108.655 76.7017 108.905 75.9638C109.872 73.6479 110.072 70.9882 109.478 68.3567C109.4 67.7458 109.485 67.1446 109.724 66.6193C110.03 65.8661 109.879 65.0934 109.883 64.3006C109.896 60.2741 109.298 56.2437 108.752 52.2085C109.018 50.4936 107.696 49.0935 107.367 47.5093C107.041 46.3061 106.449 45.1666 105.639 44.1856C105.024 43.3242 104.358 42.5025 103.714 41.6632C102.941 40.6556 102.152 39.6593 101.4 38.6363C100.665 37.5949 99.6819 36.7565 98.565 36.2189C97.6417 35.7821 96.7857 35.1493 95.8589 34.7278C93.8181 33.7988 91.7716 32.866 89.6874 32.1005C88.529 31.7226 87.3468 31.4898 86.1676 31.4075C85.1978 31.3056 84.2355 31.4778 83.2634 31.4258C82.873 31.4352 82.4753 31.3611 82.0947 31.2081C81.7141 31.0552 81.3586 30.8266 81.0502 30.5364C80.3167 29.7706 79.4085 29.2149 78.435 28.9363C76.505 28.3659 74.7472 27.131 72.7726 26.7266C71.5464 25.8097 70.1625 25.6247 68.7922 25.3204C65.4487 24.5803 62.1305 24.0504 58.9058 24.881C58.7227 24.9362 58.5242 24.9438 58.3266 24.9031C56.4574 24.4112 54.9299 25.2613 53.2761 25.6299C51.6129 25.9998 49.8538 26.0433 48.3108 26.818C47.3194 27.3154 46.0735 27.2252 45.1185 27.9073C44.1056 28.7343 42.9202 29.3269 41.6296 29.6515C40.3572 29.9053 39.2887 30.8188 38.0295 31.1536C36.9222 31.4139 35.8978 31.8943 35.0095 32.57C33.8361 33.4974 32.621 34.3723 31.426 35.2725C30.6451 35.7889 30.0137 36.5014 29.5814 37.3537C29.3475 37.877 29.0242 38.3448 28.6251 38.7373ZM40.2258 35.1263C40.5249 34.9044 40.876 34.7597 41.2542 34.7027C42.2046 34.571 43.0892 34.2181 43.8442 33.6694C45.2527 32.4406 46.9644 31.6099 48.84 31.245C49.9308 31.0749 50.8054 30.0494 51.8942 29.9082C54.9363 29.5139 57.6748 28.1764 60.7863 28.0369C62.1346 27.9759 63.4447 27.7065 64.8421 27.9789C65.623 28.1741 66.4137 28.2542 67.1896 28.2165C69.3029 27.9956 71.5085 28.4444 73.5237 29.5053C74.4341 29.9601 75.4374 30.1593 76.3744 30.5559C76.5633 30.6412 76.7213 30.7956 76.8149 30.9864C76.9086 31.1772 76.9305 31.3895 76.8761 31.5783C76.8379 31.6509 76.7844 31.7126 76.7189 31.7594C76.6535 31.8061 76.5775 31.8369 76.496 31.8498C75.7407 32.0047 74.9613 32.1588 74.7685 33.0436C74.6362 33.6085 74.6094 34.2064 74.6895 34.8075C74.7306 35.0035 74.8146 35.1925 74.9349 35.3592C75.0551 35.5259 75.2083 35.6658 75.3822 35.7677C77.479 36.5179 79.6439 36.893 81.7771 36.8758C85.6876 36.913 89.6194 37.8721 93.5061 38.908C94.6779 39.2114 95.7959 39.7924 96.7673 40.6029C98.1821 41.8424 99.9439 42.5566 101.131 44.1357C102.341 45.7431 102.549 47.5897 103.046 49.3602C103.834 51.9387 104.296 54.5736 104.418 57.1949C104.427 57.5827 104.738 58.0088 104.719 58.3837C104.548 61.7733 104.969 65.2275 104.922 68.6207C104.867 72.0364 104.638 75.4253 104.236 78.7736C104.008 80.7163 103.324 82.5483 102.827 84.4237C102.579 85.3591 102.258 86.2672 102.031 87.2102C101.866 87.9792 101.478 88.6533 100.915 89.1482C99.7805 90.1218 98.628 91.0731 97.483 92.0334L97.3822 91.9019C96.4931 92.5838 95.6157 93.2819 94.7098 93.9411C94.281 94.3043 93.7955 94.5944 93.2684 94.8022C90.5747 95.627 87.9122 96.5803 85.1323 97.1239C81.9624 97.7429 78.9077 98.7252 75.6665 99.1183C70.5295 99.7433 65.4222 100.502 60.2954 101.172C59.5421 101.276 58.7668 101.277 57.9891 101.173C56.2244 100.918 54.4542 100.62 52.697 100.24C44.4447 98.4629 47.5763 99.5567 39.7523 95.2027C39.0375 94.8052 38.1712 94.4462 37.7137 93.8232C36.4231 92.0663 34.3298 91.3827 33.0462 89.6374C31.3054 87.2697 29.1786 85.1402 28.4649 82.1817C28.3841 81.9881 28.2774 81.8044 28.1482 81.6367C26.4373 78.7636 25.0904 75.7076 24.1452 72.5541C23.796 71.3675 23.593 70.1635 22.9156 69.0382C22.2237 67.8871 22.7549 66.6302 22.4481 65.4451C21.8388 63.4399 21.78 61.3646 22.2784 59.4634C23.0794 56.891 23.3494 54.0312 24.8257 51.8074C26.0726 49.9298 27.1799 47.9564 28.4161 46.0759C28.8638 45.4754 29.3641 44.9207 29.9118 44.4178C30.3638 44.0869 30.7682 43.6951 31.1162 43.2512C33.1463 39.3696 37.0876 37.7139 40.2258 35.1263Z" fill="#F3F3F3"/>
</g>
<defs>
    <style type="text/css"><![CDATA[
       .gold {
         fill: #796e59;
       }
    ]]></style>
<clipPath id="clip0_10_5">
<rect width="40" height="40" fill="white" transform="translate(46 45.1436)"/>
</clipPath>
<clipPath id="clip1_10_5">
<rect width="94.0218" height="93.375" fill="white" transform="translate(74.0928 0.143555) rotate(52.5136)"/>
</clipPath>
</defs>
</svg>
