<svg width="78" height="73" viewBox="0 0 78 73" fill="none" xmlns="http://www.w3.org/2000/svg">
<g clip-path="url(#clip0_11_14)">
<path d="M75.1202 38.1605C75.7353 39.0438 76.2926 40.2512 75.5488 41.137C74.7763 42.0579 73.4589 41.4766 72.4968 41.063C70.2335 40.096 68.0175 39.0123 65.8192 37.9037C64.6092 37.2441 63.2139 37.0063 61.8537 37.2278C59.8632 37.5472 57.8199 37.5436 55.8916 38.232C55.2725 38.4269 54.6716 38.6755 54.0958 38.975C49.3057 41.7141 44.5426 44.4998 39.7404 47.2177C38.6597 47.8136 37.7005 48.6068 36.9124 49.5564C34.051 53.0246 31.5111 56.746 29.3242 60.6746C28.6573 61.8757 27.6916 62.9071 27.3569 64.3045C27.3203 64.4567 26.7394 64.508 26.4047 64.536C26.3358 64.5421 26.1735 64.2416 26.1707 64.0805C26.1442 63.6509 26.1762 63.2198 26.2658 62.7989C26.3747 62.3851 27.027 62.1218 26.5984 61.5552C26.2779 61.9259 25.9462 62.2887 25.6387 62.6703C24.7818 63.7383 23.9547 64.8315 23.0711 65.8772C22.8324 66.1358 22.5148 66.3082 22.1679 66.3675C21.8542 66.417 21.4292 66.3859 21.5048 65.8022C21.7667 64.3093 22.228 62.8584 22.8764 61.4885C24.1982 58.3281 26.5197 55.856 28.9143 53.6279C31.1924 51.4227 33.2751 49.0241 35.1389 46.4592C37.719 43.0656 40.7265 40.1648 44.6077 38.3172C45.9286 37.7451 47.2951 37.2846 48.6929 36.9404C50.4905 36.432 52.1401 35.4781 54.0588 35.2996C55.4112 35.1737 56.7365 34.7977 58.1182 34.9099C58.5542 34.9486 58.9936 34.9028 59.4122 34.7748C62.7553 33.7282 66.3195 33.6076 69.7257 34.4257C71.8181 34.8794 74.0635 36.3434 75.1202 38.1605ZM73.9498 38.8286C73.3819 37.5754 72.4973 36.4621 70.9009 36.1424L69.3979 35.8421C69.7724 36.2257 70.145 36.6114 70.5244 36.9902C70.7768 37.2428 71.0562 37.4696 71.2952 37.7335C71.9672 38.4768 72.582 39.2776 73.305 39.9654C73.7131 40.2505 74.1615 40.473 74.6353 40.6255C74.5045 40.1956 74.3807 39.7631 74.238 39.3365C74.1556 39.1598 74.0595 38.9899 73.9506 38.8282L73.9498 38.8286Z" fill="#F40707" fill-opacity="0.65"/>
<path d="M30.5867 19.532C30.4973 19.6985 30.4262 19.8743 30.3748 20.0563C30.0329 22.3499 29.6971 24.645 29.3674 26.9415C29.0605 29.092 29.9895 30.5739 32.0918 31.2239C33.2155 31.5712 34.366 31.8316 35.4977 32.154C35.5987 32.1782 35.6908 32.2306 35.7631 32.305C35.8355 32.3795 35.8852 32.4731 35.9065 32.5747C35.9278 32.6764 35.9198 32.782 35.8834 32.8793C35.8469 32.9765 35.7836 33.0614 35.7008 33.1241C35.2204 33.4211 34.695 33.6383 34.1452 33.7672C32.6572 34.1229 31.2546 33.6388 29.8399 33.2539C28.7714 32.9634 28.5387 33.1089 28.4165 34.2144C28.3058 35.2188 28.3453 36.2396 28.269 37.2496C28.1325 39.0513 28.0043 40.8656 27.126 42.4999C26.9064 42.771 26.6413 43.0017 26.3425 43.1818C26.0944 42.8757 25.7069 42.6021 25.6258 42.2567C25.3974 41.4209 25.2827 40.5581 25.2849 39.6917C25.3899 37.1553 24.9017 34.6242 25.3237 32.0793C25.4746 31.1685 24.7616 30.5845 24.0551 29.9642C21.9231 28.0915 20.0333 25.9912 19.4399 23.0695C19.3802 22.7761 19.4259 22.2952 19.6115 22.159C19.7626 22.0696 19.9313 22.0141 20.1059 21.9963C20.2806 21.9785 20.457 21.9989 20.6231 22.056C22.4556 22.8076 23.9416 24.0785 25.4116 25.3674C25.8855 25.7829 26.0973 26.0727 26.4625 25.0789C26.8277 24.0852 26.8744 22.5352 28.548 22.3544C28.7238 22.3356 28.785 21.5546 28.9601 21.1546C29.2198 20.5561 29.5166 19.9744 29.8487 19.4128C29.887 19.3474 30.2487 19.4731 30.5867 19.532Z" fill="#F40707" fill-opacity="0.65"/>
<path d="M50.1666 18.3646C50.1811 18.558 50.184 18.752 50.1752 18.9457C49.9163 21.1799 49.6524 23.4137 49.3835 25.6472C49.3544 25.9394 49.2903 26.2271 49.1927 26.5041C49.0975 26.6612 48.9757 26.8006 48.8328 26.9159C48.7315 26.8157 48.574 26.7328 48.5375 26.6121C48.376 26.1393 48.2529 25.6543 48.1694 25.1618C48.0453 24.3731 47.9786 23.5763 47.9697 22.7779C47.9771 22.0928 47.6899 22.2932 47.3386 22.4614C47.243 22.521 47.1333 22.554 47.0206 22.5569C46.908 22.5598 46.7967 22.5326 46.6981 22.478C46.5996 22.4233 46.5174 22.3434 46.4602 22.2463C46.403 22.1493 46.3727 22.0387 46.3726 21.9261C46.2375 20.9411 46.0007 19.9823 46.3301 18.9327C46.869 17.2159 46.8194 17.0778 45.111 16.4447C43.5361 15.8856 42.0944 15.0057 40.8771 13.8607C40.6521 13.6816 40.4562 13.4689 40.2962 13.23C40.1972 12.9677 40.1342 12.6933 40.1087 12.4141C40.3786 12.3638 40.6729 12.2173 40.9145 12.2788C42.4097 12.6601 43.9078 13.0463 45.3752 13.518C46.0943 13.7987 46.7936 14.1277 47.4683 14.5028C47.6953 13.7291 47.9292 12.9565 48.1475 12.1801C48.4585 11.0738 48.7869 9.97123 49.0513 8.85309C49.1982 8.23377 49.4323 8.07922 50.0932 8.20974C50.8991 8.36876 50.5377 7.50883 50.7924 7.16187C50.9122 6.99835 51.0048 6.81428 51.1095 6.63959C51.2882 6.85625 51.6279 7.07986 51.6184 7.28782C51.5558 8.6618 51.4705 10.0397 51.2916 11.4038C51.1202 12.7024 50.7887 13.9782 50.5975 15.2759C50.476 16.1081 50.6914 16.3061 51.5434 16.3206C53.1361 16.3477 54.73 16.3354 56.3231 16.3836C56.5416 16.3901 56.9085 16.6368 56.9287 16.8052C56.9292 16.9477 56.9006 17.0888 56.8448 17.2199C56.7889 17.351 56.7069 17.4693 56.6038 17.5676C55.8959 18.2277 54.9796 18.0973 54.1118 18.1393C53.989 18.1449 53.8715 18.2647 53.7521 18.3317C53.8126 18.4303 53.8502 18.5688 53.9386 18.6203C54.3126 18.8379 54.7085 19.0173 55.0844 19.2338C55.6751 19.5732 56.2336 20.0591 56.4897 18.8683C56.5854 18.4228 57.0617 18.487 57.3041 18.8734C57.5005 19.1759 57.641 19.5111 57.7189 19.8631C57.966 21.095 57.5154 21.6051 56.357 21.2304C55.062 20.7664 53.7925 20.2343 52.5537 19.6361C51.8913 19.3412 51.2562 18.9841 50.6118 18.6498C50.4817 18.5861 50.3689 18.4967 50.1666 18.3646Z" fill="#F40707" fill-opacity="0.65"/>
</g>
<defs>
<clipPath id="clip0_11_14">
<rect width="61.8393" height="46.8212" fill="white" transform="translate(0.807617 31.6675) rotate(-30)"/>
</clipPath>
</defs>
</svg>
