<svg width="214" height="54" viewBox="0 0 214 54" fill="none" xmlns="http://www.w3.org/2000/svg">
<g clip-path="url(#clip0_11_13)">
<path d="M196.198 10.7823C192.312 10.9536 188.423 11.1497 184.539 11.2876C181.939 11.3796 179.348 11.3868 176.752 11.436C176.238 11.4189 175.713 11.4408 175.194 11.5008C171.433 12.1575 167.693 11.9046 163.945 12.1399C163.301 12.1378 162.65 12.1786 162.008 12.2614C158.777 12.9241 155.557 12.5739 152.316 12.8539C147.419 13.2758 142.496 13.4684 137.584 13.7389C133.831 13.9452 130.08 14.0893 126.329 14.3216C122.844 14.5376 119.361 14.8529 115.876 15.0902C110.709 15.4417 105.542 15.755 100.375 16.0994C94.1686 16.4663 87.9679 17.0337 81.8122 17.7982C75.2906 18.657 68.759 19.5207 62.1999 20.2054C57.4468 20.7024 52.7091 21.3538 47.8555 21.3802C44.0245 21.4011 40.1081 21.8208 36.2304 22.0288C35.8156 22.0512 35.4077 21.8421 34.998 21.7403C35.3372 21.5662 35.6398 21.2904 36.0211 21.2339C39.7259 20.6867 43.4205 20.0865 47.1551 19.6766C53.2086 19.0127 59.2201 18.2382 65.2057 17.3218C74.1198 15.9571 83.054 14.6767 92.1056 13.6918C98.0439 13.0458 103.976 12.7589 109.902 12.214C111.962 12.0247 114.039 11.9844 116.109 11.8738C120.895 11.6178 125.682 11.3609 130.468 11.1031C134.35 10.8912 138.231 10.6883 142.112 10.4474C145.087 10.2625 148.061 9.9875 151.038 9.81892C156.862 9.48897 162.68 8.87502 168.509 9.03105C172.059 9.12603 175.758 8.76121 179.368 8.7227C183.666 8.67792 187.969 8.67334 192.21 8.81625C195.152 8.93539 198.035 9.18866 200.824 9.57302C202.846 9.83722 204.695 10.5816 204.75 11.6183C204.811 12.7712 204.579 14.0088 202.07 15.0601C197.588 16.9379 192.519 17.6975 187.32 18.2544C180.242 19.0132 173.138 19.6397 166.041 20.2819C160.624 20.7719 155.203 21.2256 149.777 21.6433C145.383 21.9823 140.987 22.2787 136.588 22.5325C130.119 22.9068 123.646 23.5616 117.179 23.6241C116.165 23.6337 115.118 23.8327 114.092 23.8711C106.383 24.1674 98.6695 24.5651 90.9722 24.6497C85.9582 24.7046 80.8811 25.0286 75.8307 25.3003C72.4768 25.481 69.1207 25.8073 65.7648 26.0238C60.3205 26.3749 54.9296 26.8344 49.6851 28.0134C48.1177 28.3656 46.3476 28.407 44.7077 28.6761C37.0808 29.9224 29.6078 31.4915 22.3752 33.3652C19.7133 34.0569 16.9198 34.5907 14.2013 35.216C13.3426 35.4177 12.5097 35.6522 11.7107 35.917C10.7225 36.2393 11.3406 36.5811 11.8291 36.6416C13.1553 36.8452 14.56 36.9427 15.9958 36.931C22.7207 36.6504 29.455 36.1098 36.1381 35.314C41.6852 34.6906 47.2434 34.53 52.7858 33.9847C56.5154 33.6181 60.2692 33.3347 64.0099 33.129C69.1796 32.8445 74.3243 32.1875 79.5241 32.1268C82.571 32.0923 85.6997 31.5984 88.7946 31.3549C93.5653 30.9794 98.3431 30.6862 103.11 30.2764C109.687 29.7105 116.312 29.7331 122.849 28.6862C127.349 28.867 132.009 27.9406 136.477 28.3548C136.981 28.4016 137.528 28.3787 138.024 28.4342C139.257 28.5715 139.6 29.0407 138.632 29.5223C137.066 30.3017 135.467 31.1341 133.619 31.6912C125.17 34.2386 116.363 36.3847 107.54 38.5026C105.212 39.0613 102.829 39.5473 100.487 40.0898C100.205 40.1548 100.025 40.364 99.8013 40.5064C100.155 40.555 100.517 40.6729 100.861 40.6415C103.047 40.4405 105.206 39.8749 107.421 40.1315C107.89 40.1996 108.348 40.2811 108.793 40.3759C108.553 40.663 108.227 40.9348 107.83 41.1814C104.875 42.5433 101.285 42.7028 97.7808 42.986C96.4909 43.0871 95.1993 43.1533 93.912 43.1843C92.9849 43.2486 92.0637 43.2215 91.2011 43.1045C90.28 42.9456 89.5267 42.6315 89.0582 42.211C88.8623 41.9768 89.6202 41.3618 90.2371 41.077C93.146 39.7787 96.3626 38.6742 99.7895 37.797C108.569 35.4395 117.462 33.2298 126.521 31.2302C126.82 31.155 127.112 31.0717 127.396 30.9807C127.046 30.9303 126.681 30.8042 126.35 30.8412C122.874 31.2306 119.401 31.6489 115.927 32.0529C114.643 32.2022 113.347 32.3033 112.073 32.4809C106.711 33.2245 101.285 33.6733 95.8961 34.3263C90.9152 34.9304 85.8279 35.112 80.7872 35.4669C78.069 35.6584 75.3503 35.8287 72.6318 35.9999C68.7547 36.2437 64.8771 36.4833 60.9989 36.7184C55.3131 37.0663 49.6206 37.4977 43.9428 37.734C38.3252 37.9675 32.7239 38.5331 27.0883 38.7154C22.9682 38.8489 19.0456 38.6318 15.0331 38.5769C12.8705 38.5474 11.1825 38.0133 9.53247 37.4913C8.06239 37.0274 8.04188 36.2423 9.4147 35.4758C12.2544 33.8459 15.6462 32.4765 19.395 31.4462C22.6354 30.5801 26.0795 29.9108 29.1741 28.9228C31.9038 28.0509 34.805 27.5561 37.6552 26.9218C44.2491 25.4544 51.0878 24.6202 57.9043 23.684C62.7438 22.9769 67.6616 22.5358 72.5657 22.3689C78.2779 22.2286 83.9843 21.6544 89.704 21.6313C94.9359 21.6102 100.287 21.0357 105.582 20.7666C108.051 20.6411 110.508 20.6985 112.976 20.6054C115.941 20.4938 118.914 20.2839 121.88 20.166C124.219 20.0727 126.549 20.0657 128.887 19.998C130.557 19.9996 132.243 19.9236 133.923 19.7708C137.287 19.3601 140.676 19.8731 144.001 19.0502C148.782 19.1103 153.59 18.5856 158.385 18.3266C163.179 18.0677 167.971 17.7689 172.764 17.438C177.939 17.0809 183.112 16.6637 188.287 16.2782C191.987 16.0025 195.494 15.2584 198.931 14.4599C200.464 14.1036 202.038 13.5441 202.248 12.4892C202.425 11.6054 202.142 11.2571 200.476 11.1382C199.071 11.0382 197.625 11.0182 196.198 10.9625C196.192 10.9055 196.195 10.8439 196.198 10.7823Z" fill="#F40707" fill-opacity="0.65"/>
</g>
<defs>
<clipPath id="clip0_11_13">
<rect width="210.943" height="35.7846" fill="white" transform="translate(0.20929 17.7224) rotate(-4.57546)"/>
</clipPath>
</defs>
</svg>
