<?xml version="1.0" encoding="utf-8"?>
<!-- Generator: Adobe Illustrator 26.0.3, SVG Export Plug-In . SVG Version: 6.00 Build 0)  -->
<svg version="1.1" id="Layer_1" xmlns="http://www.w3.org/2000/svg" xmlns:xlink="http://www.w3.org/1999/xlink" x="0px" y="0px"
	 viewBox="0 0 243 213" style="enable-background:new 0 0 243 213;" xml:space="preserve">
<style type="text/css">
	.st0{fill:#F3F3F3;}
	.st1{clip-path:url(#SVGID_00000091718412769714875050000014954570166041321915_);}
	.st2{fill:#EAD3AA;}
</style>
<path class="st0" d="M91.2,64.4c0.2,0.2,0.9,0.7,1.1,1c4.9,0,8.7-0.8,12.2-3.7c2.8-2.3,4.3-4.7,3.2-8.3c-3.6-4-8-2.4-12.4-1.5
	c4-7.2,4.2-8.7,1.9-14.2c-3.4-2.9-5-3.3-7.9-1.5c-2.7,1.6-4,4.3-3.4,7c0.4,0.5,0.9,1.1,1.7,2C87.5,51.5,89.4,57.6,91.2,64.4z
	 M94.2,62.5c-0.2,0.2,0,0.1,0.1-0.1c-0.3-3-0.6-5.9-1-9.4c3.7,2.8,7.2,1.6,11.2,0.8c-2.6,4.2-6.1,6.8-10.2,8.6
	C94.2,62.6,94.1,62.7,94.2,62.5z M90.5,40.8c1.1-0.9,2.1-1.8,3.1-2.7c0.2,0.1,0.4,0.2,0.6,0.3c-0.5,3.1-0.9,6.1-1.4,9.2
	c-0.2,0-0.3,0-0.5,0.1C91.6,45.5,91.1,43.3,90.5,40.8z M129.1,47.6c-0.1-1.2-0.9-2.2-1.7-3.1c-1-1-2.2-1.8-3.6-2.4
	c-0.3-0.1-0.7,0-1,0.1c-0.1,0-0.4,0.2-0.4,0.3c1.2,1.7,2.4,3.4,2.5,5.5c0,0.2,0.3,0.5,0.5,0.7c0.6,1.1,0.8,2.2,0.3,3.4
	c-0.3,0.7-0.3,1.4-0.4,2.1c0,0.5-0.3,1.1-0.5,1.7c-0.4,1.5-1.7,2.6-3,3.7c-0.8,0.8-1.8,1-2.9,1.1c-1.4,0.1-2.7-0.6-2.8-1.6
	c-0.3-1.5-0.4-3.1-0.6-4.7c-0.2-1.1,0-2.3-0.7-3.3c-1.1-1.5-1.2-2.9-0.3-4.5c0.1-0.2,0-0.6-0.2-0.8c-0.3-0.3-0.9-0.6-1.3-0.7
	c-0.4,0-1,0.4-1.2,0.8c-0.8,1.3-1.5,2.7-1.2,4.2c0.1,1,0.2,2,0.3,3c0,0,0,0,0,0c0.1,0.7,0.2,1.4,0.2,2.1c0,1.8,0.7,3.4,1.7,4.9
	c0.2,0.4,0.4,0.8,0.8,1.1c1.9,1.7,4.1,2.7,7.2,2c0.9-0.2,1.8-0.2,2.7-0.4c0.7-0.1,1.4-0.4,1.9-0.8c0.5-0.4,1-0.9,1.7-1.2
	c1.5-0.6,1.9-1.7,2.6-2.8c0.9-1.4,0.1-2.9,1-4.2c0.3-0.3,0.2-0.8,0.2-1.3c-0.1-0.8,0-1.7-0.7-2.4C129.3,49.3,129.2,48.5,129.1,47.6z
	 M137.7,37.8c-1.5,2.2-2.5,4.2-2.4,6.7c0.1,3.8-0.1,7.5,0,11.3c0,0.7,0.5,1.5,1,2.4c2.2-0.4,2.8-1.6,3.2-3.3
	c0.6-2.8,0.6-5.6,0.7-8.5c0.1-2.8-0.8-5.3-1.4-7.9C138.7,38.4,138.1,38.1,137.7,37.8z M139.6,28.7c-0.6-0.4-1.1-0.7-1.5-1.1
	c-3.3,0.9-4.8,3.1-6.2,5.3c-0.5,0.8-0.3,1.8,0.8,2.6c2.1-1.1,4.3-2.3,6.5-3.5c-0.3-0.4-0.6-0.8-0.9-1.2
	C138.6,30.2,139,29.6,139.6,28.7z M148.1,55.1c-0.6,0.5-0.6,0.8-0.2,1.3c0.8,0.8,1.7,1.3,2.8,1.5c2.4,0.3,4.8-0.5,7.2,0.5
	c0.5,0.2,1.2,0.2,1.6-0.1c1.7-1.1,3.6-1.1,5.3-1.8c1.5-0.5,2.9-1.5,4-2.6c1.1-1.1,1.5-2.8,1.9-4.7c-0.4-0.7-1.1-1.7-1.4-2.7
	c-1.1-4.4-4.2-7.5-7.9-9.8c-2.3-1.4-4.7-2.5-7.1-3.7c-0.2-0.1-0.5-0.1-0.8-0.3c-2.9-1.5-5.6-1-8.3,0.9c-1.2,0.9-1.9,1.8-1.8,3.3
	c0.1,1.9,0.4,3.7,1.3,5.4c1.7,3,3,6.3,4.4,9.4C150,53.4,150,53.4,148.1,55.1z M147.8,41.2c-0.5-0.9-0.7-2-0.9-3
	c-0.4-1.6,1.4-3.2,3-2.8c2,0.6,4.2,1.1,5.9,2.5c1.7,1.3,3.4,2.5,5.5,3.4c0.9,0.3,1.7,1.3,2.3,2.2c0.8,1,1.5,2.2,2.3,3.3
	c1.3,2.1,1.4,2.9,0.1,5.1c-0.2,0.5-0.6,1-1.1,1.1c-1.6,0.4-3.2,0.7-3.1,0.7c-3.1,0.3-4.4,0.4-5.7,0.5c-1.2,0.1-2.2-0.4-2.6-1.4
	C151.7,48.8,150.1,44.9,147.8,41.2z M193,47.3c-1.2-1.1-1.5,0.2-2.1,0.8c-0.5,0.7-0.9,1.5-1.6,2.1c-0.6,0.5-1.3,1.2-2,1.2
	c-2.5-0.3-5.1-0.8-7.5-1.3c-1.3-0.3-2-1.4-2.1-3c-0.2-2.7-0.5-5.4-0.8-8.1c-0.3-2.8-0.6-5.5-0.9-8.3c-0.1-1.4-0.7-2.4-1.5-3.3
	c-0.7-0.9-1.7-0.6-1.9,0.7c-0.2,1.3-0.1,2.8-0.2,4.1c-0.4,5.1,0.2,10.1,2.1,14.8c0.4,1,0.8,1.8,1.5,2.5c2.7,3,6,3.9,9.5,4.4
	c2,0.3,3.8-0.2,5.7-0.7c1-0.2,1.9-1.2,2.6-2C194.7,50,194.4,48.5,193,47.3z M202.8,52.3c-0.5-0.6-0.7-1.4-0.5-2.1
	c0.1-0.2-0.2-0.4-0.4-0.4c-0.9-0.2-1.8,0.1-2.4,0.8c-0.4,0.6-0.9,1.2-1.4,1.8c-0.5,0.7-0.4,1.8,0.2,2.4c0.8,0.8,1.5,1.3,2.7,1.1
	c0.6-0.1,1.2-0.3,1.6-0.8c0.4-0.5,0.6-1.1,0.5-1.8C203,53,202.9,52.6,202.8,52.3z M100.7,100.3c2.2-0.5,4.7-0.5,6.7-1.8
	c0.4-0.3,1.2,0.3,1.3,0.9c0.3,1.5,0.5,3.1,0.8,4.6c1.2,1.6,1.4,3.6,1.7,5.6c0,0.3,0.3,0.7,0.5,1c1.1,1.2,2.2,2.2,3.6,2.9
	c0.2,0.1,0.3,0,0.5-0.1c0.4-0.1,1.1-1.2,0.9-1.4c-1.2-1.3-0.8-3-1.4-4.4c-0.4-0.9-1.3-1.7-0.7-2.7c0.5-1-0.6-1.8-0.1-2.8
	c0.4-0.7,0.2-1.4-0.2-2.2c-0.2-0.3-0.3-0.8-0.2-1.1c0.3-1,0.2-1.9-0.4-2.8c-0.2-0.3-0.4-0.8-0.3-1c0.7-2.1,0.4-4.3,0.2-6.4
	c-0.2-2-1.3-3.6-2.5-5.1c-0.4-0.5-1.6-1-2.1-0.8c-0.7,0.4-1.2,1-1.5,1.8c-0.1,0.4-0.2,0.8-0.1,1.1c0.1,1.6,0.2,3.1,0.3,4.7
	c0.1,1-0.3,1.9-0.9,2.7c-1.5,1.9-3.3,3.2-5.9,3.4c-2.5,0.3-3.1,0.1-3.3-2.7c-0.1-1.4-1-2.5-1.5-3.8c-0.9-2.6-2.7-4.1-5.1-5.3
	c-0.2-0.1-0.4-0.1-0.6,0c-0.5,0.2-0.6,0.6-0.3,0.9c1.4,1.2,2,2.8,2.1,4.6c0.2,3.3,0.6,6.6,1,9.9l0,0c0.2,1.7,0.3,3.5,0.5,5.2
	c0.3,2.3,0.6,4.6,1,7c0.1,0.7,0.9,1.2,1.7,1.2c0.4,0,0.8-0.1,1.2-0.2c0.9-0.2,1.4-0.8,1.5-1.5c0.2-1.7-0.7-3.5,0.3-5.2
	c-0.9-1.7,0.4-3.4,0-5.1C99.6,101.1,100.3,100.4,100.7,100.3z M138.4,94.3c-0.1-0.8-0.5-1.6-1.3-2.2l-0.1-0.1
	c-0.9-0.7-1.7-1.5-2.9-1.9c-1.1-0.3-1.9-0.6-2.6-1c-1.4-0.7-3.1-0.9-4.9-0.5c-2.5,0.6-4.9,2.1-7,4.3c-0.8,0.9-1.3,2.2-1.6,3.9
	c-0.1,0.3,0.2,0.7,0.3,0.8c0.1,0.1,0.5,0.5,0.9,0.2c0.2-0.2,0.5-0.4,0.7-0.6c0.2-0.2,0.4-0.4,0.6-0.6c0.1-0.1,0.4-0.2,0.6-0.3
	c0.1,0.2,0.2,0.4,0.3,0.6c0.1,1,0.2,2,0.3,3l0.3,2.7c0.1,1.2,0.3,2.5,0.4,3.7c0.2,1.4,1.4,2.7,3,3c1,0.2,1.8,0.3,2.8,0.5
	c0.4,0.1,0.8,0.1,1.2,0.2l0.2,0l3.6-2.2c0.1-0.1,0.2-0.1,0.3-0.2c0.3-0.2,0.5-0.3,0.7-0.5c1.1-0.9,2.3-2.2,2.9-3.8
	c0.1-0.4,0.3-0.8,0.4-1.2c0.3-0.9,0.6-1.8,1-2.6c0.3-0.8,0.4-1.6,0.4-2.4C138.7,96.2,138.6,95.2,138.4,94.3z M127.2,107.2
	c-1.8-0.8-2.8-1.9-3-3.5c0-0.4-0.1-0.8-0.1-1.2l-0.1-0.6c-0.2-1.2,0.1-2.3,0.3-3.5l0.1-0.3c0.2-0.9,0.2-1.8,0.1-2.7c0-0.5,0-1,0-1.5
	c0-0.2,0.2-0.5,0.4-0.7c0.5-0.4,1.1-0.8,1.9-1.2c0.4-0.2,0.6-0.3,0.7-0.3c0.1,0,0.1,0,0.2,0c0.5,0.1,1,0.1,1.5,0.2
	c1.9,0.3,3.8,0.6,5.3,2.1c0.9,0.9,1.3,2,1.1,3.4c-0.2,1-0.6,2.1-1.1,3.2c-0.2,0.4-0.4,0.7-0.6,1c-0.3,0.5-0.7,1-0.9,1.5
	c-0.6,2.2-2.3,3-4.2,3.9l-0.2,0.1C128.2,107.3,127.6,107.4,127.2,107.2z M145.5,106.7c-0.6,0.5-0.6,0.8-0.2,1.3
	c0.8,0.8,1.7,1.3,2.8,1.5c2.4,0.3,4.9-0.5,7.2,0.5c0.5,0.2,1.2,0.2,1.6-0.1c1.7-1.1,3.6-1.1,5.3-1.8c1.5-0.5,2.9-1.5,4-2.6
	c1.1-1.1,1.5-2.8,1.9-4.7c-0.4-0.7-1.1-1.7-1.4-2.7c-1.1-4.4-4.2-7.5-7.9-9.8c-2.3-1.4-4.7-2.5-7.1-3.7c-0.2-0.1-0.5-0.1-0.8-0.3
	c-2.9-1.5-5.6-1-8.3,0.9c-1.2,0.9-1.9,1.8-1.8,3.3c0.1,1.9,0.4,3.7,1.3,5.4c1.7,3,3,6.3,4.5,9.4C147.4,104.9,147.5,105,145.5,106.7z
	 M145.3,92.7c-0.5-0.9-0.7-2-0.9-3c-0.4-1.6,1.4-3.2,3-2.8c2,0.6,4.2,1.1,5.9,2.5c1.7,1.3,3.4,2.5,5.5,3.4c0.9,0.3,1.7,1.3,2.3,2.2
	c0.8,1,1.5,2.2,2.2,3.3c1.3,2.1,1.4,2.9,0.1,5.1c-0.2,0.5-0.6,1-1.1,1.1c-1.6,0.4-3.2,0.7-3.1,0.7c-3.1,0.3-4.4,0.4-5.7,0.5
	c-1.2,0.1-2.2-0.4-2.6-1.4C149.2,100.4,147.6,96.4,145.3,92.7z M200.4,97.4c0-0.1-0.2-0.3-0.3-0.4c-0.9-0.5-1.9-0.6-2.8-0.2
	c-1.8,0.8-3.7,1.1-5.7,1.1c-1,0-1.9,0.4-2.8,0.7c-2.1,0.6-4.1,1.3-5.9,2.4c-0.8,0.5-1.7,0.9-2.6,1.3c-0.7,0.4-1.7-0.2-1.7-0.9
	c0-2.2-0.1-4.3-0.1-6.5c0-0.8,0-1.6-0.3-2.3c-0.6-1.3-0.7-2.6-0.8-4c-0.1-1-0.7-9.2-1.1-10c-0.7-1.5-0.7-3.1-1.1-4.5
	c-0.1-0.2-0.2-0.4-0.4-0.5c-0.4-0.2-0.8-0.4-1.1-0.3c-1.2,0.6-2.1,1.7-2.8,2.8c-0.1,0.3,0,0.8,0.1,1.1c0.1,0.4,0.5,0.7,0.5,1
	c0.4,1.7,1.1,11.6,0.5,13.5c-0.4,1.1-0.6,2.2-0.6,3.4c0,2.7,0.1,5.5,0,8.2c0,1.7,0.8,3,1.6,4.3c0.1,0.3,0.6,0.5,0.9,0.6
	c0.6,0.2,1.2,0.2,1.9,0.3c0.9-0.1,2.2,0,3.2-0.5c2.8-1.4,5.7-2.3,8.5-3.7c1.6-0.8,3.2-1.5,4.8-2.1c2.7-1,5.4-2.2,7.8-3.9
	C200.4,98.2,200.4,97.7,200.4,97.4z M207.8,103.1c-0.5-0.6-0.7-1.4-0.5-2.1c0.1-0.2-0.2-0.4-0.4-0.4c-0.9-0.2-1.8,0.1-2.4,0.8
	c-0.4,0.6-0.9,1.2-1.4,1.8c-0.5,0.7-0.4,1.8,0.2,2.4c0.8,0.8,1.5,1.3,2.7,1.1c0.6-0.1,1.2-0.3,1.6-0.8c0.4-0.5,0.6-1.1,0.5-1.8
	C208,103.7,208,103.4,207.8,103.1z M138.2,139c0-1.7-0.8-3-1.8-4.2c-0.4-0.5-0.8-0.8-1.4-1c-1.3-0.5-2.5-1-4-0.8
	c-2.7,0.3-5.4,0.4-8.1,0.8c-3.2,0.5-5.7,2-6.8,5.5c-0.8,2.4-1.4,4.8-1,7.4c0.3,2.1,0.4,4.3,0.7,6.4c0,0,0.1,0,0.1,0
	c0.3,2.7,0.6,5.4,0.8,8.1c0.1,1,0.2,1.9,0.8,2.8c0.6,0.8,0.8,1.8,0.9,2.7c0.2,1.2,0.4,2.3,1.1,3.3c0.7,3,2.4,5.7,2.4,8.9
	c0,0.4,0.1,0.8,0.3,1.1c0.1,0.1,0.2,0.4,0.3,0.4c0.3,0,0.7-0.1,0.9-0.3c0.4-0.4,0.7-1,0.2-1.5c-0.3-0.4-0.3-0.7,0-1.1
	c1-1.2,1.4-2.6,1.2-4.3c-0.6-4.8-1-9.7-1.5-14.6c0-0.4,0-0.8,0-1.2c0-0.8,0.4-1.6,1.1-1.9c2.7-1.2,5.1-2.8,7.6-4.3
	c1.8-1,3-2.4,4.2-4c1.4-2,2.2-4.1,1.9-6.6C138.3,140.2,138.2,139.6,138.2,139z M121.9,160.8c-0.2-0.1-0.3-0.4-0.5-0.6
	c-0.1,0-0.1,0-0.2-0.1c0,0,0-0.1,0-0.1c-0.3-0.2-0.7-0.3-0.8-0.6c-0.1-0.3,0-0.7,0-1c0.2,0,0.3,0,0.4,0.1c0.1,0.1,0.2,0.3,0.2,0.5
	c0,0.3,0.1,0.7,0.2,1c0,0,0,0,0.1,0c0.1,0,0.1,0.1,0.1,0.1c0.3,0.1,0.6,0.1,0.7,0.3C122.5,160.9,122.3,161.1,121.9,160.8z
	 M134.9,142.6c0,0.8-0.2,1.5-0.7,2.2c-0.5,0.6-0.9,1.3-1.5,1.7c-1.9,1.4-3.8,2.7-5.6,4.2c-1.2,0.9-2.7,1.4-4.2,2
	c-1.2,0.6-3-0.3-3.3-1.6c-0.3-1.3-0.5-2.7-0.5-2.7c-0.2-1.9-0.3-2.5-0.3-3.1c-0.3-3.5,2.2-7.4,5.6-8.9c3.1-1.3,7.3-0.3,9.6,2.3
	c0.4,0.4,0.6,1,0.7,1.5C134.8,141.1,134.8,141.8,134.9,142.6z M143.8,156.6c1.3,5.2,9.1,7.9,12.5,3.8c1.1-1.4,2.8-2.3,4.2-3.5
	c0.4-0.4,1.2-1.1,1.1-1.3c-0.3-0.7-1-1.8-1.5-1.8c-1.3,0-2.8,0.3-4,0.9c-1.6,0.8-3.1,1.9-4.7,2.8c-0.4,0.2-1.4,0.1-1.4,0
	c-0.1-1.5-1.8-2.5-1.3-4.3c0.3-1.2,0.1-2.5,0.2-3.7c0.1-1.5,0.9-3.5,0.2-4.4c-1.3-1.6-0.3-3.1-0.7-4.6c-0.4-1.6,0.1-3.4-0.2-5.1
	c-0.2-1.9-0.7-3.8-1.4-5.6c-0.3-0.8-1.1-1.6-1.9-1.9c-1.3-0.4-2,0.7-2.3,1.9c-0.2,0.9-0.4,1.9-0.5,2.8c-0.1,0.9,0,2,0,2.9
	c-0.2,3.7-0.4,7.5-0.6,10.7C142.3,150,142.9,153.4,143.8,156.6z M164.3,160.3c0.4,0.2,0.7,0,1-0.3c0.3-0.5,0.7-1,0.9-1.5
	c0.9-2.1,1.2-4.5,1.7-6.7c0.2-1,0.4-1.9,0.8-2.8c0.4-1,1.1-1.5,2.1-1.6c2.3-0.2,4.7-0.5,7-0.7c0.5-0.1,1.2,0.5,1.3,0.9
	c0.1,0.8,0.3,1.5,0.3,2.3c0.4,3.1,0.7,6.2,1.1,9.2c0,0.2,0.4,0.4,0.7,0.6c0.1,0,0.4-0.2,0.4-0.4c0.4-1.5,1.1-2.9,0.9-4.5
	c-0.4-2.9-0.6-5.8-0.9-8.7c0,0,0,0,0,0c-0.3-2.9-0.6-5.8-0.8-8.7c-0.1-1.4-0.7-2.6-1.4-3.8c-0.6-1-1.3-2-2-2.9
	c-0.2-0.3-0.6-0.4-1-0.5c-0.9-0.1-1.9-0.1-2.8,0.4c-2.7,1.5-4.7,3.5-5.4,6.5c-0.7,3.1-1.7,6-2.8,8.9c-0.1,0.4-0.3,0.8-0.2,1.1
	c0.5,2-0.8,3.8-0.7,5.7c-1.1,2-0.3,4.3-1.1,6.3c0,0.1,0.1,0.4,0.2,0.5C163.7,159.9,164,160.2,164.3,160.3z M169.5,143
	c0.2-0.8,0.5-1.5,0.6-2.2c0.3-1.3,1-2.5,1.1-4c0.2-1.7,1.3-2.8,2.5-3.8c0.1-0.1,0.4-0.2,0.5-0.2c0.9-0.4,2.1,0.2,2.4,1
	c0.5,1.7,0.3,3.5,1.4,5c0.2,1.4,0.4,2.7,0.5,4.1c0,0.2-0.4,0.8-0.6,0.9c-1.2,0.2-2.3,0.3-3.5,0.4c-1.2,0.1-2.4,0.2-3.5,0.4
	C170.1,144.6,169.4,143.7,169.5,143z M208.6,123.8c0.2-1.6-0.7-1.3-1.4-1.1c-0.6,0.1-1.3,0.4-1.5,0.9c-0.7,1.2-1.3,2.4-1.6,3.7
	c-1.2,4.3-2.2,8.7-3.3,12.9c-0.2,0.6-0.4,1.8-1.4,1c-2.8-2.2-5.5-4.5-8.1-6.8c-1.8-1.5-3.5-3.2-5.3-4.7c-0.5-0.5-1.2,0-1.2,0.7
	c-0.1,1.5,0.8,2.6,1.7,3.6c0.6,0.8,1.3,1.5,2,2.2c2.9,2.5,5.6,5.5,9.3,7c1.5,0.7,1.8,1.3,1.3,2.9c-0.9,3.1-1.8,6.2-2.7,9.3
	c-0.1,0.5-0.5,1-0.4,1.4c0.1,0.5,0.8,1.2,1,1.2c1.9-0.7,4.4-0.5,5.3-2.9c0.1-0.3,0.1-0.5,0.2-0.7c3.1-6,5.3-12.4,6.7-19
	c0.6-2.9,0.8-5.9,1.2-9.2C209.8,125.6,208.5,124.6,208.6,123.8z M206.8,131.2c0.1-0.2,0.2-0.4,0.3-0.6c0.1,0.2,0.4,0.4,0.3,0.6
	c-0.1,0.3-0.3,0.5-0.6,0.8c0,0.2,0,0.5,0,0.7c-0.1,0.2-0.2,0.4-0.3,0.6c-0.1-0.2-0.4-0.4-0.3-0.6c0.1-0.3,0.4-0.5,0.6-0.7
	C206.8,131.7,206.7,131.5,206.8,131.2z M205,137.5c-0.1,0.8,0.7,1.8-0.5,2.4c0,0.2,0.1,0.5,0,0.7c-0.1,0.2-0.2,0.4-0.3,0.6
	c-0.1-0.2-0.3-0.4-0.3-0.6c0.1-0.3,0.4-0.5,0.6-0.8C204.7,139,203.9,138,205,137.5c0.2-0.5,0.4-1.1,0.6-1.6c0-0.2-0.1-0.5,0-0.7
	c0-0.2,0.2-0.4,0.3-0.6c0.1,0.2,0.4,0.4,0.3,0.6c-0.1,0.3-0.3,0.5-0.6,0.8C205.5,136.4,205.2,137,205,137.5z M220.8,153
	c-0.5-0.6-0.7-1.4-0.5-2.1c0.1-0.2-0.2-0.4-0.4-0.4c-0.9-0.2-1.8,0.1-2.4,0.8c-0.4,0.6-0.9,1.2-1.4,1.8c-0.5,0.7-0.4,1.8,0.2,2.4
	c0.8,0.8,1.5,1.3,2.7,1.1c0.6-0.1,1.2-0.3,1.6-0.8c0.4-0.5,0.6-1.1,0.5-1.8C221.1,153.7,221,153.3,220.8,153z"/>
<g>
	<defs>

			<rect id="SVGID_1_" x="122.8" y="171.2" transform="matrix(0.984 -0.1784 0.1784 0.984 -30.1399 34.0452)" width="103" height="26.8"/>
	</defs>
	<clipPath id="SVGID_00000049182211113577592930000008472360695137794221_">
		<use xlink:href="#SVGID_1_"  style="overflow:visible;"/>
	</clipPath>
	<g style="clip-path:url(#SVGID_00000049182211113577592930000008472360695137794221_);">
		<path class="st2" d="M216.5,170c-1.9,0.2-3.8,0.5-5.7,0.7c-1.3,0.1-2.5,0.2-3.8,0.3c-0.3,0-0.5,0-0.8,0.1
			c-1.8,0.6-3.6,0.5-5.4,0.8c-0.3,0-0.6,0.1-0.9,0.1c-1.5,0.6-3.1,0.4-4.7,0.7c-2.4,0.5-4.8,0.7-7.1,1.1c-1.8,0.3-3.6,0.5-5.5,0.7
			c-1.7,0.3-3.4,0.6-5,0.9c-2.5,0.4-5,0.8-7.5,1.2c-3,0.4-6,1-8.9,1.8c-3.1,0.8-6.2,1.6-9.4,2.3c-2.3,0.5-4.5,1.1-6.9,1.3
			c-1.9,0.1-3.8,0.5-5.6,0.8c-0.2,0-0.4-0.1-0.6-0.2c0.1-0.1,0.3-0.4,0.5-0.4c1.8-0.5,3.5-1.1,5.3-1.5c2.9-0.7,5.8-1.4,8.6-2.3
			c4.2-1.3,8.5-2.5,12.8-3.4c2.8-0.6,5.7-1,8.6-1.6c1-0.2,2-0.3,3-0.4c2.3-0.3,4.6-0.6,7-1c1.9-0.3,3.8-0.5,5.6-0.8
			c1.4-0.2,2.9-0.5,4.3-0.7c2.8-0.4,5.6-1,8.5-1.1c1.7,0,3.5-0.4,5.3-0.5c2.1-0.2,4.2-0.3,6.3-0.3c1.5,0,2.9,0.1,4.3,0.3
			c1,0.1,2,0.6,2.1,1.4c0.1,0.9,0.1,1.8-1,2.6c-2,1.5-4.4,2.2-6.9,2.8c-3.4,0.8-6.8,1.4-10.2,2.1c-2.6,0.5-5.2,1-7.8,1.5
			c-2.1,0.4-4.2,0.7-6.4,1c-3.1,0.5-6.2,1.1-9.4,1.4c-0.5,0-1,0.2-1.5,0.3c-3.7,0.4-7.5,0.9-11.2,1.2c-2.4,0.2-4.9,0.6-7.4,0.9
			c-1.6,0.2-3.2,0.6-4.9,0.8c-2.6,0.4-5.2,0.9-7.7,1.9c-0.7,0.3-1.6,0.4-2.4,0.6c-3.6,1.1-7.1,2.5-10.5,4.1
			c-1.2,0.6-2.6,1.1-3.8,1.6c-0.4,0.2-0.8,0.4-1.2,0.6c-0.5,0.3-0.1,0.5,0.1,0.5c0.7,0.1,1.4,0.1,2.1,0.1c3.3-0.4,6.5-1,9.7-1.8
			c2.7-0.6,5.4-0.9,8-1.5c1.8-0.4,3.6-0.7,5.4-1c2.5-0.4,5-1,7.5-1.2c1.5-0.1,3-0.6,4.5-0.8c2.3-0.4,4.6-0.8,6.9-1.2
			c3.2-0.6,6.4-0.8,9.5-1.7c2.2,0,4.4-0.8,6.6-0.6c0.3,0,0.5,0,0.8,0c0.6,0.1,0.8,0.4,0.4,0.8c-0.7,0.6-1.4,1.3-2.2,1.8
			c-3.9,2.1-8,4-12.1,5.8c-1.1,0.5-2.2,0.9-3.3,1.4c-0.1,0.1-0.2,0.2-0.3,0.3c0.2,0,0.4,0.1,0.5,0.1c1.1-0.2,2.1-0.7,3.2-0.6
			c0.2,0,0.5,0.1,0.7,0.1c-0.1,0.2-0.2,0.4-0.4,0.6c-1.3,1.1-3.1,1.3-4.7,1.6c-0.6,0.1-1.2,0.2-1.9,0.3c-0.4,0.1-0.9,0.1-1.3,0
			c-0.5-0.1-0.9-0.3-1.1-0.6c-0.1-0.2,0.2-0.6,0.5-0.9c1.3-1,2.8-2,4.4-2.7c4.1-2,8.2-3.9,12.5-5.6c0.1-0.1,0.3-0.1,0.4-0.2
			c-0.2,0-0.4-0.1-0.5-0.1c-1.7,0.4-3.3,0.8-5,1.2c-0.6,0.1-1.2,0.3-1.8,0.4c-2.6,0.7-5.2,1.2-7.7,1.8c-2.4,0.6-4.9,0.9-7.3,1.3
			c-1.3,0.2-2.6,0.4-3.9,0.6c-1.9,0.3-3.8,0.6-5.6,0.9c-2.8,0.4-5.5,0.9-8.3,1.2c-2.7,0.3-5.4,0.9-8.2,1.2c-2,0.2-3.9,0.2-5.9,0.2
			c-1.1,0-1.9-0.3-2.8-0.7c-0.8-0.3-0.8-0.9-0.2-1.5c1.2-1.3,2.8-2.4,4.5-3.3c1.5-0.7,3.1-1.3,4.5-2.1c1.3-0.7,2.6-1.2,4-1.7
			c3.1-1.3,6.4-2.1,9.6-3c2.3-0.7,4.7-1.1,7.1-1.4c2.8-0.3,5.5-0.8,8.3-1c2.6-0.2,5.1-0.7,7.7-1.1c1.2-0.2,2.4-0.2,3.6-0.3
			c1.4-0.2,2.9-0.4,4.3-0.6c1.1-0.1,2.3-0.2,3.4-0.3c0.8,0,1.6-0.1,2.4-0.3c1.6-0.4,3.3-0.1,4.9-0.8c2.3-0.1,4.7-0.6,7-0.9
			c2.3-0.3,4.6-0.7,7-1.1c2.5-0.4,5-0.9,7.5-1.3c1.8-0.3,3.4-1,5-1.6c0.7-0.3,1.4-0.8,1.4-1.6c0-0.7-0.2-0.9-1-1c-0.7,0-1.4,0-2.1,0
			C216.5,170.1,216.5,170,216.5,170z"/>
	</g>
</g>
</svg>
